<svg xmlns="http://www.w3.org/2000/svg" viewBox="0 0 154.18 232.55"><defs><style>.cls-1{fill:#332f2d;}.cls-2{fill:#3d3634;}.cls-3{fill:#2b2522;}.cls-16,.cls-4{fill:#100;}.cls-12,.cls-5{fill:none;}.cls-6{fill:#e1e0bc;}.cls-7{fill:#c2c771;}.cls-8{fill:#fed1b1;}.cls-9{fill:#fefcfd;}.cls-10{fill:#f6d2b8;}.cls-11{fill:#efe4e4;}.cls-12,.cls-16{stroke:#100;stroke-miterlimit:10;}.cls-12{stroke-linecap:round;stroke-width:0.25px;}.cls-13{fill:#693c4d;}.cls-14{fill:#cf8480;}.cls-15{fill:#fcfcfc;}.cls-16{stroke-width:0.15px;}</style></defs><g id="Layer_2" data-name="Layer 2"><g id="final_result" data-name="final result"><g id="ACDC"><g id="Hair"><path class="cls-1" d="M104.06,118c.43,3.89,12.46,19.55,13.38,36.07.38,6.24-1.53,20.66-3.67,22.23-1.18.71-10.67,12.84-9.53,28-2.82,4.06-16.39,14.54-12.23,25-4.6-3.76-4.85-10.35-3.14-16.3,5.82-16.91.32-20.58-1.27-22.15-2.08,2.72-6.2,6.21-5.58,17.71-2-10.18-6-10.41-8.78-13.8-1.46-2.06-2.38-2.69-2.47-5.64-1.62,1.62-4.85,4.22-5.48,11.84s1.27,15.3.27,21.13c-.43,2.79-1.5,7.55-3.29,9.42-.06-4.71-3.71-10.2-7.46-15.23-4.29-5.24-7.9-16.35-4-25.93-1.65,2.07-10.53,18.29-11.14,32.88-.53-.9-5.92-32.43-8.07-35.44,3.7.44,8.65-2.52,9.08-11.87.27-3.93,2.93-17.59-4.35-28.41-1.35-1.85-3.77-7.39-5.82-9.83-.1-.56,1.88-5.38,4.46-4.73,3.89,1.36,12.82,4.38,22.29,4.26C71,137.39,82.33,134,85,132.67,91.92,129.81,102.26,122.06,104.06,118Z"/><path class="cls-2" d="M4.6,132.61c.45,4,7.76,20.48,8.05,28.64s-4.2,25.13-1.27,34.06S23,213,23.61,213.74c.59-2.78,2.81-7.85,2.67-12.54-.59-6.46-3.38-11.4,5.34-12.9,7.67-.52,10-2.46,10.84-18.84.67-15.32-8.46-27.32-11.83-31.68-.14-.28,1.07-5,4.2-4.76-.47-.4-8.77-3.77-10-5.83-.27-.45-1.14-.9-1.46-1.31-2-2.53-5-5.83-5.22-6.75S16.47,116,16,114.4c-.63-1.59-2.67-7.7-2.54-9.09-.21-1.57-.48-6.32-.1-7.3.12-3,1.74-7.8,3.13-10.53.39-.69.79-1.77.79-1.6S19,83.25,19,83.25a24.07,24.07,0,0,1-5.58-13.52c-.22-2.94,1-6.62,5.48-11.55.89-1,3.61-2.25,4.17-3A30.77,30.77,0,0,1,51.16,30.7c2.18-.46,2.38.4,3.14-1.61,8.25-18.22,16.15-25.37,22.78-27C39-1.62,15.89,16.72,9.49,42,6.67,49-5.86,68.43,4.6,90.25,9.26,110,1.83,115.58,4.6,132.61Z"/><path class="cls-3" d="M55.93,30.24c-2.44-.29-2.79,1.25-1.39-2.54,1.7-4.6,10.42-24.58,25-26.07S123.91,8.9,136.18,26.8c3.34,3.33,10.28,14.61,13.83,29,1.93,6.81,3.3,27.05-1.94,32.83-3.36,18.51,5.15,35.7,5.15,45.78,0,8.71-5,21.93-5.73,28.67-1.41,6.74,4.43,28.45,2.92,35.38-1.92,13.64-8.76,17.84-21.1,27.2l-.39-11.44S121,220,105.75,221c-2.69-12.39-5.43-29.43,6.87-45.36,12-33-10.17-42.82-10.93-50.83,1-7.33,14.11-18.32,9.33-46.83A18.4,18.4,0,0,1,99.54,65.65C95.63,43.12,79.18,32.11,55.93,30.24Z"/><path class="cls-4" d="M31.63,134.65c-.77,1.16-1.36,2.94-1.08,3.47,3.06,4,12.4,16.06,11.73,31.38-.38,17.42-4.68,17.75-9.76,17.28.21.31.2,1.22.46,1.4,7.86-.67,9.43-3.1,10.21-18.64s-8.71-27.83-11.83-31.85a6.72,6.72,0,0,1,1.71-3.36,2.63,2.63,0,0,1,2-.79l.61,0a16.17,16.17,0,0,0-2.07-.69A4.51,4.51,0,0,0,31.63,134.65Z"/><path class="cls-4" d="M54,30.49l-.87-.23C55.06,23,65.19,3.73,77.39,1.13l.19.89C65.76,4.53,55.89,23.41,54,30.49Z"/><path class="cls-4" d="M113.23,175.84l.06-.13c8.8-24.14-.49-36-6.63-43.76-1.17-1.48-2.21-2.8-3-4a7.06,7.06,0,0,1-.91-5.41,20.8,20.8,0,0,1,1.71-4.59c.73-1.5.2-.4,1-2.22l-1.36,2.3c-.83,1.81-.33.28-1,1.13a10,10,0,0,0-1.35,3.64,6.9,6.9,0,0,0,.66,4.86,39.11,39.11,0,0,0,3.47,4.85c5.93,7.54,14.84,18.87,6.87,41.82a6.88,6.88,0,0,1-1,1.85c-7.18,9.79-8.77,20.14-8.5,28.93l1-1.2C104.23,195.24,105.93,185.29,113.23,175.84Z"/><path class="cls-4" d="M61.78,232.55l0-1.81c-.06-4.48-3.55-9.76-7.32-14.8-3.93-4.8-6.7-13.23-5.54-21.27-3.2,6.24-7.84,17.46-8.28,27.81l-.1,2.51-1.28-2.17c-.2-.34-.46-1.56-1.85-8.68-1.69-8.74-4.22-21.74-5.74-25.77-6.05,1.18-5.6,4-4.87,8.6.18,1.08.36,2.23.47,3.43.1,3.5-1,7-1.87,9.89-.35,1.12-.65,2.09-.81,2.87l-.32,1.48-1-1.15c-.05-.07-.18-.21-.36-.4-7.69-8.3-10.77-14.52-12-18.28C9,189,10.13,180,11.14,172a82.46,82.46,0,0,0,1-11.46c-.17-4.95-3-13.08-5.29-19.62-1.44-4.11-2.57-7.36-2.75-9-1.28-7.85-.39-13.39.46-18.76,1-6.34,2.06-12.89-.45-23.52-9.16-19.07-.69-36.79,3.37-45.31C8.11,43,8.66,41.9,9,41c7.09-28,33-43.57,67.71-40.41h0l.27,0,.14,0A18.67,18.67,0,0,1,79.71.15C94.52-1.34,125,8.06,137,25.64c3.65,3.62,10.48,15.18,13.94,29.21,2,7,3.28,27.16-2,33.34-2.07,11.66.65,22.93,2.84,32,1.26,5.25,2.35,9.77,2.35,13.47,0,5.28-1.8,12.16-3.39,18.23a82.15,82.15,0,0,0-2.34,10.51v.08c-.67,3.19.41,10.25,1.46,17.07,1.16,7.54,2.25,14.67,1.46,18.32-1.82,12.91-8.21,17.72-18.81,25.69l-3.71,2.8-.4-11.57c-2.71,1.64-10.24,5.44-22.42,6.26l-.64,0-.14-.63a97.79,97.79,0,0,1-2.17-14.11l-1,1.1c-4.58,4.87-12.24,13-9.13,20.81L94,230.92l-2.23-1.83c-4.27-3.5-5.5-9.72-3.38-17.08,5.05-14.69,1.49-19-.44-20.81-2.1,3.24-5.39,11.14-5.19,17.08l.21,6.09-1.66-5.86c-1.46-5.17-5.5-10.5-8.41-14.07l-.72-1a7.45,7.45,0,0,1-1.76-3.5c-1.6,1.66-3.68,4.42-4.16,10.27a68.33,68.33,0,0,0,.24,10.63,45.57,45.57,0,0,1,0,10.57c-.27,1.71-1.3,7.51-3.49,9.81Zm-8.15-47.47-1.93,4.76c-4,9.95.25,20.73,3.9,25.19,3.38,4.51,6.53,9.22,7.4,13.57a29.22,29.22,0,0,0,2-7.41c.51-3,.24-6.49,0-10.22a68.66,68.66,0,0,1-.23-10.86c.6-7.35,3.56-10.22,5.33-11.94l1.57-1.57,0,1.72a6,6,0,0,0,1.62,4.25l.72,1a54.85,54.85,0,0,1,7.41,11.22c.84-6.1,3.91-12.73,5.75-15.14l.51-.67.91.88c2,1.87,6.77,6.27,1.14,22.62-.77,2.71-2,8.91,1,13.4C89.88,218.22,96.7,211,101,206.41c.85-.9,1.61-1.71,2.19-2.39l1.24-1.46.07,1.91a87.12,87.12,0,0,0,2.1,15c14.4-1.1,22.06-6.6,22.14-6.66l1.13-.83.4,11.43,1.43-1.09c10.64-8,16.5-12.41,18.24-24.76.74-3.44-.38-10.76-1.47-17.83-1.11-7.25-2.16-14.1-1.45-17.57a86.12,86.12,0,0,1,2.37-10.7c1.57-6,3.35-12.76,3.35-17.85,0-3.52-1.07-8-2.32-13.12-2.23-9.24-5-20.76-2.81-32.8l0-.21.14-.15c5-5.51,3.66-25.51,1.78-32.13-3.37-13.63-10.13-25.14-13.64-28.64C124,9.33,94.36.14,79.86,1.63q-.35,0-.69.09l-1.1.22h0l-.7.14h0l-.07-.33,0,.33-.7.07,0-.12c-33.87-3.08-59.2,12-66.12,39.4-.42,1-1,2.21-1.63,3.57C4.54,54-3.42,70.61,5.5,89.19,8.12,100.26,7.05,107,6,113.43c-.88,5.49-1.71,10.68-.46,18.33a60.75,60.75,0,0,0,2.68,8.67c2.31,6.63,5.19,14.88,5.37,20.06a82.07,82.07,0,0,1-1,11.7c-1,7.79-2.12,16.63-.3,22.16,1.16,3.53,4,9.34,11.14,17.15.15-.51.32-1.06.5-1.65.85-2.74,1.9-6.16,1.81-9.36-.11-1.12-.28-2.23-.45-3.29-.74-4.63-1.44-9,6.4-10.37l.51,0,.55.44c1.56,3.42,4.28,17.38,6.07,26.61.26,1.35.52,2.66.75,3.84,2-13.28,9.26-26.59,10.84-28.59Z"/></g><g id="acdc-2" data-name="acdc"><path class="cls-5" d="M16,101.42a14,14,0,0,1,3.72-1A14,14,0,0,0,16,101.42Z"/><path class="cls-5" d="M20.27,100.43h0l-.5,0C19.93,100.44,20.1,100.45,20.27,100.43Z"/><path class="cls-5" d="M31.1,104.26l-.37-.33h0Z"/><path class="cls-6" d="M28.61,105.38l.32.16a8.16,8.16,0,0,1,3.67,4.63,15.26,15.26,0,0,1,.57,6,13.85,13.85,0,0,1-2.72,7.8,19.46,19.46,0,0,1-2.72,2.4l-2.06,1.7a13.72,13.72,0,0,0,1.87-.74l.28-.13a15.23,15.23,0,0,0,1.69-1l.24-.18a14.5,14.5,0,0,0,1.48-1.24.6.6,0,0,0,.08-.08,13.21,13.21,0,0,0,1.3-1.49,3.55,3.55,0,0,0,.23-.31,12.81,12.81,0,0,0,1-1.65c0-.07.07-.15.1-.21a14.26,14.26,0,0,0,.73-1.7c0-.1.08-.21.11-.31a12.84,12.84,0,0,0,.48-1.92c0-.14,0-.28.07-.42a14.24,14.24,0,0,0,.17-2.08,14.75,14.75,0,0,0-.12-1.77c0-.17,0-.33-.08-.49-.07-.45-.16-.88-.27-1.31,0-.14-.07-.28-.11-.42a12.85,12.85,0,0,0-.58-1.61,1.3,1.3,0,0,0-.08-.17,12.29,12.29,0,0,0-.7-1.35c-.07-.13-.14-.25-.22-.37a14.05,14.05,0,0,0-.83-1.19l-.15-.2a12.86,12.86,0,0,0-1.17-1.28c0-.05-.1-.09-.14-.14l-.39-.32A15.74,15.74,0,0,1,28.61,105.38Z"/><path class="cls-7" d="M27.73,126.35a19.46,19.46,0,0,0,2.72-2.4,13.85,13.85,0,0,0,2.72-7.8,15.26,15.26,0,0,0-.57-6,8.16,8.16,0,0,0-3.67-4.63l-.32-.16a19.18,19.18,0,0,1-2,1A9.73,9.73,0,1,1,20.09,105l.18-4.55c-.17,0-.34,0-.5,0h0a3.47,3.47,0,0,1,.29,2c-.11.91-.15,1.37-1.1,1.39A7.86,7.86,0,0,0,14,105.71,11.4,11.4,0,0,0,10.72,111a13.87,13.87,0,0,0-.17,8,11.68,11.68,0,0,0,4.65,6.47c2.45,1.63,5.43,2.17,8.28,2.93l.38.12h0a12.76,12.76,0,0,0,1.77-.46Z"/><polygon class="cls-7" points="19.77 100.46 19.76 100.46 19.76 100.46 19.77 100.46"/><path class="cls-7" d="M23.48,128.39c-2.85-.76-5.83-1.3-8.28-2.93A11.68,11.68,0,0,1,10.55,119a13.87,13.87,0,0,1,.17-8A11.4,11.4,0,0,1,14,105.71,7.86,7.86,0,0,1,19,103.84c.95,0,1-.48,1.1-1.39a3.47,3.47,0,0,0-.29-2h0a14,14,0,0,0-3.72,1l0,0c-.31.12-.6.27-.9.41l-.3.15c-.26.14-.51.29-.76.44s-.26.15-.39.24-.44.3-.66.46-.28.2-.41.31l-.58.49-.42.38-.51.52c-.13.15-.27.29-.4.45s-.3.35-.44.53l-.38.51-.38.55-.35.57-.31.57c-.11.2-.21.42-.31.63l-.25.57-.26.69-.19.57c-.08.25-.14.51-.2.77s-.09.36-.13.54-.1.6-.14.91c0,.15,0,.3-.06.46a12.87,12.87,0,0,0-.07,1.4,14.21,14.21,0,0,0,14.19,14.19c.44,0,.87,0,1.31-.07s.67-.08,1-.14l.19,0Z"/><path class="cls-7" d="M19.76,100.46h0Z"/><path class="cls-7" d="M20.09,105a2.21,2.21,0,0,0,2.17-2.37,2.16,2.16,0,0,0-2-2.19h0l-.5,0h0a13.41,13.41,0,0,0-2.7.61,5.16,5.16,0,0,0-.23,1.49,5,5,0,0,0,1,3,9.72,9.72,0,0,1,2.28-.62Z"/><path class="cls-4" d="M17.81,105.6a9.65,9.65,0,1,0,8.8.82l-.54.22a9.28,9.28,0,1,1-7.94-.68C18,105.84,17.91,105.73,17.81,105.6Z"/><path class="cls-4" d="M31.06,103.62s-.11.1-.16.15l-.17.16.37.33s.1.09.14.14a12.86,12.86,0,0,1,1.17,1.28l.15.2a14.05,14.05,0,0,1,.83,1.19c.08.12.15.24.22.37a12.29,12.29,0,0,1,.7,1.35,1.3,1.3,0,0,1,.08.17,12.85,12.85,0,0,1,.58,1.61c0,.14.07.28.11.42.11.43.2.86.27,1.31,0,.16,0,.32.08.49a14.75,14.75,0,0,1,.12,1.77,14.24,14.24,0,0,1-.17,2.08c0,.14,0,.28-.07.42a12.84,12.84,0,0,1-.48,1.92c0,.1-.07.21-.11.31A14.26,14.26,0,0,1,34,121c0,.06-.06.14-.1.21a12.81,12.81,0,0,1-1,1.65,3.55,3.55,0,0,1-.23.31,13.21,13.21,0,0,1-1.3,1.49.6.6,0,0,1-.08.08A14.5,14.5,0,0,1,29.75,126l-.24.18a15.23,15.23,0,0,1-1.69,1l-.28.13a13,13,0,0,1-1.9.77,14.73,14.73,0,0,1-1.74.43h0l-.2,0c-.33.06-.67.11-1,.14s-.86.07-1.3.07A14.21,14.21,0,0,1,7.17,114.56a13.18,13.18,0,0,1,.07-1.41c0-.15,0-.3.06-.45,0-.31.08-.61.14-.91s.09-.36.13-.54.12-.52.2-.77l.19-.57.26-.69c.08-.2.17-.38.25-.57s.2-.43.31-.63.2-.38.31-.57l.35-.57.38-.55.38-.51c.14-.18.29-.36.44-.53s.27-.3.4-.45l.51-.52.42-.38.58-.49c.13-.11.27-.21.41-.31s.44-.32.66-.46.26-.16.39-.24.5-.3.76-.44l.3-.15c.3-.14.59-.29.9-.41l0,0c.33-.14.68-.23,1-.34.06-.19.13-.37.2-.55a14.65,14.65,0,1,0,13.82,3.09Z"/><path class="cls-4" d="M19.74,100.47h0l.5,0h0a2.16,2.16,0,0,1,2,2.19A2.21,2.21,0,0,1,20.09,105h0a9.72,9.72,0,0,0-2.28.62c.1.13.21.24.32.36a8.47,8.47,0,0,1,1.93-.52,2.68,2.68,0,0,0,2.65-2.85A2.59,2.59,0,0,0,20.29,100h0a14,14,0,0,0-3.05.56c-.07.18-.14.36-.2.55A13.41,13.41,0,0,1,19.74,100.47Z"/></g><g id="Face"><path id="Skin" class="cls-8" d="M61,137.6l15.3-1.89,5.34-1.63,5.16-2,4.58-2.21L99,124.39l1.87-2.06s4.1-5,4.27-5.16,2.93-5.18,2.93-5.18,1.53-4.41,1.6-4.43,3-.36,3-.36l5.92-1.15,6.54-4.1,1-1.71,2.77-5.14.35-5.43-.84-5-2.11-3.55-3.93-2.68-6.76-1.2-4.13,1-2-1.13L104,73.27l-2.73-4-1.37-4.48-1.13-4.92-2.25-6.07-3-5L89.81,44,84.23,39.1,72.14,32.8l-9.76-2s-6.28-.76-6.35-.74-6.88.6-6.88.6-5.08,1.13-5.16,1.2-5.58,2.2-5.58,2.2L35,36.2l-4.7,4.73-2.94,4.14-3.53,7-.53,3.09L28.38,73,18.24,84.42l-2.87,5.4-1.71,6.24s-.4,6-.4,6.07.44,5.15.44,5.15l1.44,6.07,3.2,6.43,7.26,8.47,5.75,3.48,6.52,2.47,11.73,2.62,8,.78Z"/><path id="Outline" class="cls-4" d="M129.37,87.89c-.6-5.9-4.34-9.84-10.24-10.83a18.32,18.32,0,0,0-7.51.39,5.65,5.65,0,0,0-1.36-.7,15.66,15.66,0,0,1-9.54-9.84l-.07-.45c-1.86-12.52-10-34-43.83-36.88h-.1c-26.23,0-32.64,19.16-34,25.44l-.06.32c.34-.17.68-.33,1-.47,1.51-6.44,8-24.38,33-24.38h.09c33.13,2.86,41.14,23.85,43,36.11l.1.54A16.53,16.53,0,0,0,109.91,77.6l.52.22c-2.18.78-3.89,2-4.54,3.39l.84.39c.54-1.18,2.16-2.28,4.3-3,.28-.09.58-.17.88-.25A17,17,0,0,1,119,78c3.21.53,8.71,2.54,9.47,10,.57,7.74-2.11,13.47-7.73,16.58A21.17,21.17,0,0,1,110.48,107c-.34,0-.66,0-1,0a5.5,5.5,0,0,1-2.25-.47l-.55.75a5.91,5.91,0,0,0,2.5.64,38.81,38.81,0,0,1-8.49,14C88.16,135.12,67.31,138.12,52,136.52c-21.16-2.86-30.7-9.09-36.43-23.81-4.68-14.49.36-24.45,3.86-29.17L18.73,83l-.2.24c-3.6,4.93-8.6,15.12-3.85,29.83,5.89,15.11,15.62,21.5,37.2,24.41a73.57,73.57,0,0,0,7.73.4c14.29,0,31-4,41.78-15.3a39.55,39.55,0,0,0,8.78-14.62l.61,0a22.18,22.18,0,0,0,10.38-2.57C125.32,103.06,130.12,98.16,129.37,87.89Z"/></g><g id="Eyebrows"><path class="cls-4" d="M73.82,48.62C68.5,42.5,61.3,44.21,56.75,47.54l-.54-.74c4.86-3.56,12.57-5.37,18.31,1.22Z"/><path class="cls-4" d="M22.12,46.87l-.66-.63c6-6.34,13.64-4.19,18.34-.42l-.58.71C34.83,43,27.71,41,22.12,46.87Z"/></g><g id="_4" data-name="4"><path class="cls-9" d="M78.39,71.33a18.1,18.1,0,0,0-18-15.91H60.2a18,18,0,0,0-12.77,5.46,18.75,18.75,0,0,0-2.28,2.85c0,.09-.11.18-.16.28l-.13.23A17.39,17.39,0,0,0,43,68.49c-.09.31-.18.63-.26.94a19.69,19.69,0,0,0-.42,2.77,13.64,13.64,0,0,0-.09,1.57,17.81,17.81,0,0,0,1,5.77L43,80a18.85,18.85,0,0,1-1.16-6.22c0-.52.05-1,.09-1.55a18.94,18.94,0,0,1,.43-2.83c.07-.32.16-.63.25-1a18,18,0,0,1,2.07-4.73,16.45,16.45,0,0,0-15-9.74h-.19a16.24,16.24,0,0,0-6.35,1.36,16.49,16.49,0,0,0-9.31,10.9l-.1.31a16.33,16.33,0,0,0-.45,3.72c0,.11,0,.21,0,.31a16.32,16.32,0,0,0,4.64,11.23,16.86,16.86,0,0,0,1.39,1.28c.14.12.3.2.45.32.35.26.7.51,1.07.74a10.74,10.74,0,0,0,.92.56c.23.13.48.25.73.36a15,15,0,0,0,2.07.85l.45.15a16.29,16.29,0,0,0,3.51.69l0-.06c1.55-2.42,5.14-3.32,9.86-2.43h0l.31-.22c.26-.17.51-.36.76-.54s.41-.29.6-.45a14.77,14.77,0,0,0,1.32-1.19c.06-.06.1-.14.16-.2a16.66,16.66,0,0,0,1.75-2.1l.18.47A18.17,18.17,0,0,0,60.4,91.71h.21A18.16,18.16,0,0,0,78.43,75.5a17,17,0,0,0,.11-2.14c0-.13,0-.26,0-.39C78.5,72.42,78.46,71.88,78.39,71.33Z"/><path class="cls-5" d="M43,68.49c-.09.31-.18.63-.26.94a19.69,19.69,0,0,0-.42,2.77c3.69-1.15,25.9-2,36.08,3.3a17,17,0,0,0,.11-2.14c0-.13,0-.26,0-.39,0-.55-.06-1.09-.13-1.64C72,67.08,49.54,66.08,43,68.49Z"/><path class="cls-10" d="M28.49,86.82a16.76,16.76,0,0,1-3.58-.63L24.46,86a16.71,16.71,0,0,1-2.09-.85l-.22-.11-.51-.26c-.32-.17-.62-.37-.93-.56s-.73-.49-1.07-.75a16.83,16.83,0,0,1-1.85-1.61A16.44,16.44,0,0,1,13.1,70.58c0-.06,0-.12,0-.17a2.2,2.2,0,0,0,0-.23l.08,0a30.53,30.53,0,0,1,8.78-.9c7.53,0,17.35,1.15,20,2.86l.06,0,0,.24a12.63,12.63,0,0,0-.07,1.38,18.31,18.31,0,0,0,1.15,6.17l0,.07,0,0a18.23,18.23,0,0,1-1.41,1.71,19.46,19.46,0,0,1-1.5,1.4l-.44.33-.16.12c-.25.18-.51.37-.77.54l-.36.22A21,21,0,0,0,35,84.06c-3,0-5.26,1-6.38,2.71l0,.06Z"/><path class="cls-4" d="M22,69.37c7.66,0,17.32,1.16,19.91,2.85,0,.51-.09,1-.09,1.55A18.85,18.85,0,0,0,43,80a17.29,17.29,0,0,1-1.41,1.69,16.22,16.22,0,0,1-1.48,1.39c-.19.16-.4.3-.6.45l-.76.54-.35.21A18.86,18.86,0,0,0,35,83.93c-3,0-5.33,1-6.49,2.77A16.1,16.1,0,0,1,25,86.07l-.45-.15a16.3,16.3,0,0,1-2.07-.84c-.24-.13-.5-.24-.73-.37a10.74,10.74,0,0,1-.92-.56c-.37-.23-.72-.48-1.07-.74a16.08,16.08,0,0,1-6.48-12.83c0-.1,0-.2,0-.31,1.73-.62,5-.9,8.73-.9m0-.25c-4.05,0-7.18.33-8.82.92L13,70.1v.17s0,.08,0,.12a1.28,1.28,0,0,0,0,.19A16.57,16.57,0,0,0,17.69,82a17.07,17.07,0,0,0,1.87,1.63c.34.25.7.51,1.08.75s.63.4.94.57l.51.26.23.11a15.52,15.52,0,0,0,2.1.86l.46.15a16.93,16.93,0,0,0,3.61.64h.14l.08-.12c1.1-1.71,3.33-2.66,6.28-2.66a18.16,18.16,0,0,1,3.32.34l.09,0,.09-.05.14-.09a1.64,1.64,0,0,0,.22-.14c.26-.17.52-.35.77-.54l.17-.13.44-.32a16.8,16.8,0,0,0,1.5-1.42,17.14,17.14,0,0,0,1.43-1.72l.08-.1-.05-.13a18.62,18.62,0,0,1-1.14-6.13c0-.45,0-.91.08-1.35v-.33L42,72c-2.74-1.78-12.54-2.89-20-2.89Z"/><path class="cls-10" d="M60.4,91.83a18.37,18.37,0,0,1-17-11.74l-.18-.47a18.13,18.13,0,0,1-1-5.85,13.3,13.3,0,0,1,.07-1.43l0-.23.08,0a52.67,52.67,0,0,1,11.26-.87c5.09,0,17.7.4,24.92,4.18l.08,0v.08a18.26,18.26,0,0,1-18,16.32Z"/><path class="cls-4" d="M53.57,71.33c8.2,0,18.72,1,24.86,4.17A18.16,18.16,0,0,1,60.61,91.71H60.4A18.17,18.17,0,0,1,43.48,80.05l-.18-.47v0a17.81,17.81,0,0,1-1-5.77c0-.53.05-1,.09-1.57,1.46-.46,5.84-.87,11.22-.87m0-.25c-5,0-9.64.36-11.29.88l-.16.05,0,.17v.14A13.79,13.79,0,0,0,42,73.77a18.21,18.21,0,0,0,1,5.85c.06.18.12.31.17.45l0,.07A18.5,18.5,0,0,0,60.4,92h.21A18.4,18.4,0,0,0,78.68,75.52l0-.17-.15-.08c-7.25-3.78-19.88-4.19-25-4.19Z"/><path class="cls-10" d="M78.32,71.44c-4.25-2.82-15.27-4.11-23.71-4.11-5.14,0-9.34.47-11.54,1.28l-.23.08.07-.23a17.85,17.85,0,0,1,1.84-4.29l.13-.22c.07-.13.12-.21.17-.29a18.73,18.73,0,0,1,2.29-2.87A18.12,18.12,0,0,1,60.2,55.3h.21a18.22,18.22,0,0,1,18.11,16l0,.27Z"/><path class="cls-4" d="M60.41,55.42a18.1,18.1,0,0,1,18,15.91C74.26,68.6,63.5,67.2,54.61,67.2c-4.92,0-9.26.43-11.58,1.29a17.39,17.39,0,0,1,1.83-4.25L45,64c0-.1.11-.19.16-.28h0a18.75,18.75,0,0,1,2.28-2.85A18,18,0,0,1,60.2,55.42h.21m0-.25H60.2a18.33,18.33,0,0,0-13,5.53,19,19,0,0,0-2.31,2.89l-.15.26-.15.26a18.2,18.2,0,0,0-1.85,4.31l-.14.48.47-.17c2.18-.81,6.37-1.28,11.49-1.28,8.42,0,19.41,1.28,23.64,4.09l.45.3-.06-.54A18.38,18.38,0,0,0,60.41,55.17Z"/><path class="cls-10" d="M42.48,68.53c-1.24-1.26-9.85-3.2-18.75-3.2a42.06,42.06,0,0,0-9.9,1l-.2,0,0-.21a16.72,16.72,0,0,1,9.38-11,16.39,16.39,0,0,1,6.4-1.38h.19a16.58,16.58,0,0,1,15.1,9.81l0,.06,0,.05a18.1,18.1,0,0,0-2.05,4.71l-.06.2Z"/><path class="cls-4" d="M29.65,54a16.45,16.45,0,0,1,15,9.74,18,18,0,0,0-2.07,4.73c-1.28-1.3-10-3.24-18.84-3.24a42.91,42.91,0,0,0-9.93,1,16.49,16.49,0,0,1,9.31-10.9A16.25,16.25,0,0,1,29.47,54h.18m0-.25h-.18A16.46,16.46,0,0,0,23,55.11a16.84,16.84,0,0,0-9.45,11.06l-.11.41.41-.1a42.32,42.32,0,0,1,9.87-1c8.87,0,17.43,1.92,18.67,3.17l.3.3.11-.41a17.81,17.81,0,0,1,2-4.67l.07-.11-.06-.13a16.71,16.71,0,0,0-15.21-9.88Z"/><path class="cls-10" d="M38.4,84.28h0l.31-.22-.35.21Z"/><path class="cls-11" d="M44.64,63.71c.07.17.14.35.22.53-.08-.18-.15-.36-.22-.53Z"/><path class="cls-11" d="M43,80l.33-.45L43,80Z"/><path class="cls-4" d="M43,80h0a17.29,17.29,0,0,1-1.41,1.69,16.66,16.66,0,0,0,1.75-2.1v0Z"/><path class="cls-4" d="M41.39,81.88c.06-.06.1-.14.16-.2a16.22,16.22,0,0,1-1.48,1.39A14.77,14.77,0,0,0,41.39,81.88Z"/><path class="cls-4" d="M78.84,71.32A18.55,18.55,0,0,0,60.41,55H60.2a18.5,18.5,0,0,0-13.09,5.6,19.23,19.23,0,0,0-2.19,2.69,16.88,16.88,0,0,0-15.27-9.73h-.19a16.58,16.58,0,0,0-6.23,1.27c-.35.14-.7.3-1,.47l-.3.16A16.89,16.89,0,0,0,13.3,66.34a1.68,1.68,0,0,0-.07.24,16.2,16.2,0,0,0-.45,3.9s0,.07,0,.1a16.8,16.8,0,0,0,5.41,12.18l.11.11.69.59a16.77,16.77,0,0,0,9.19,3.74h0a5.1,5.1,0,0,0,1.48,6.05,5.76,5.76,0,0,0,3.71,1.27,11.76,11.76,0,0,0,6.87-2.74L40,91.42c-3.85,2.91-7.6,3.46-10,1.48a4.62,4.62,0,0,1-1.35-5.5c0-.06.08-.11.11-.17a3.29,3.29,0,0,1,.28-.44h0l.05-.06c1.46-2,4.61-2.76,8.72-2.09h0c.23,0,.46.06.7.11l.14-.09a17.21,17.21,0,0,0,3.08-2.47,16.49,16.49,0,0,0,1.43-1.7A18.61,18.61,0,0,0,60.4,92.17h.21A18.6,18.6,0,0,0,78.4,78.24a18.91,18.91,0,0,0,.6-4.88c0-.18,0-.36,0-.53C79,72.32,78.9,71.82,78.84,71.32Zm-.41,4.18A18.16,18.16,0,0,1,60.61,91.71H60.4A18.17,18.17,0,0,1,43.48,80.05l-.18-.47a16.66,16.66,0,0,1-1.75,2.1c-.06.06-.1.14-.16.2a14.77,14.77,0,0,1-1.32,1.19c-.19.16-.4.3-.6.45s-.5.37-.76.54l-.31.22h0c-4.72-.89-8.31,0-9.86,2.43l0,.06A16.29,16.29,0,0,1,25,86.07l-.45-.15a15,15,0,0,1-2.07-.85c-.25-.11-.5-.23-.73-.36a10.74,10.74,0,0,1-.92-.56c-.37-.23-.72-.48-1.07-.74-.15-.12-.31-.2-.45-.32a16.86,16.86,0,0,1-1.39-1.28,16.32,16.32,0,0,1-4.64-11.23c0-.1,0-.2,0-.31a16.33,16.33,0,0,1,.45-3.72l.1-.31a16.49,16.49,0,0,1,9.31-10.9A16.24,16.24,0,0,1,29.46,54h.19a16.45,16.45,0,0,1,15,9.74,18,18,0,0,0-2.07,4.73c-.09.32-.18.63-.25,1a18.94,18.94,0,0,0-.43,2.83c0,.51-.09,1-.09,1.55A18.85,18.85,0,0,0,43,80l.33-.45a17.81,17.81,0,0,1-1-5.77,13.64,13.64,0,0,1,.09-1.57,19.69,19.69,0,0,1,.42-2.77c.08-.31.17-.63.26-.94a17.39,17.39,0,0,1,1.83-4.25L45,64c0-.1.11-.19.16-.28a18.75,18.75,0,0,1,2.28-2.85A18,18,0,0,1,60.2,55.42h.21a18.1,18.1,0,0,1,18,15.91c.07.55.11,1.09.13,1.64,0,.13,0,.26,0,.39A17,17,0,0,1,78.43,75.5Z"/><path class="cls-4" d="M14.21,66.56c-1.94-.14-2.39,3.37-.91,3.27a1.94,1.94,0,0,0,2.11-.46S15.34,66.56,14.21,66.56Z"/><path class="cls-4" d="M45.46,71.51c0-.51.14-3.7-2.66-2.18l-.44,1.22L42.26,72l1.83-.31Z"/><path class="cls-12" d="M11.82,63.93a2.82,2.82,0,0,0,2,2.58"/><path class="cls-12" d="M81.58,69.88A2.81,2.81,0,0,1,79,71.93"/><path class="cls-13" d="M43.24,106.13h0C42,104.86,41.16,101,41,100.22a14.64,14.64,0,0,0-8.52,8.67,8.4,8.4,0,0,0-.61,3.51,6.89,6.89,0,0,0,3.25,5.49l.15.09c2.46,1.54,6,2.11,10,1.7l-.09,0c1-3,5.28-7.21,10.36-8.81a11.49,11.49,0,0,1,10.39,1.46c0-.24-.1-.46-.13-.7a14.64,14.64,0,0,1,0-3.5c-.85,0-19.52-.25-22.53-2Z"/><path class="cls-14" d="M55.58,111c-4.85,1.52-9.18,5.69-10.22,8.66a32.35,32.35,0,0,0,7.46-1.78c2.2-.82,4.75-.18,7,.38a13.58,13.58,0,0,0,3.32.57c2.28-.1,3.87-.68,4.75-1.71A12.33,12.33,0,0,1,66,112.54,11.33,11.33,0,0,0,55.58,111Z"/><path class="cls-15" d="M42.43,99.69c-.43.14-.85.3-1.26.46.14.63,1,4.6,2.18,5.84,3,1.69,22.24,1.93,22.44,1.93V108a19,19,0,0,1,1.54-5.51C63.29,99.87,51.62,96.71,42.43,99.69Z"/><path class="cls-16" d="M66,111.58c-.65-5.14,1.67-10.19,4-13.19l.39-.49-.14-.11c-.13.16-.26.34-.39.51a20.57,20.57,0,0,0-2.43,4l-.13-.08c-4.21-2.63-15.78-5.7-24.91-2.73a15.07,15.07,0,0,0-10,9.3,8.68,8.68,0,0,0-.61,3.58A7,7,0,0,0,35,118l.15.09c4,2.49,10.73,2.47,17.69-.08,2.15-.79,4.67-.17,6.89.39a14,14,0,0,0,3.38.58c2.3-.11,3.93-.7,4.84-1.74a15.24,15.24,0,0,0,3.62,3.59l.1-.15A13,13,0,0,1,66,111.58ZM42.43,99.69c9.19-3,20.86.18,24.9,2.81A19,19,0,0,0,65.79,108v-.09c-.2,0-19.43-.24-22.44-1.93-1.16-1.24-2-5.21-2.18-5.84C41.58,100,42,99.83,42.43,99.69ZM35.28,118l-.15-.09a6.89,6.89,0,0,1-3.25-5.49,8.4,8.4,0,0,1,.61-3.51A14.61,14.61,0,0,1,41,100.22c.15.74,1,4.64,2.22,5.9h0c3,1.71,21.68,2,22.53,2a14.64,14.64,0,0,0,0,3.5c0,.24.09.46.13.7a11.49,11.49,0,0,0-10.39-1.46c-5.08,1.6-9.33,5.81-10.36,8.81l.09,0C41.27,120.09,37.74,119.52,35.28,118Zm27.86.86a13.58,13.58,0,0,1-3.32-.57c-2.25-.56-4.8-1.2-7-.38a32.35,32.35,0,0,1-7.46,1.78c1-3,5.37-7.14,10.22-8.66A11.33,11.33,0,0,1,66,112.54a12.33,12.33,0,0,0,1.92,4.59C67,118.16,65.42,118.74,63.14,118.84Z"/></g><g id="acdc-3" data-name="acdc"><path class="cls-5" d="M108.93,101.14a13.66,13.66,0,0,1,3.72-1A13.66,13.66,0,0,0,108.93,101.14Z"/><path class="cls-5" d="M113.18,100.15h0l-.5,0C112.84,100.16,113,100.16,113.18,100.15Z"/><path class="cls-5" d="M124,104l-.37-.33h0C123.75,103.77,123.89,103.87,124,104Z"/><path class="cls-6" d="M121.52,105.1l.32.16a8.13,8.13,0,0,1,3.67,4.63,14.9,14.9,0,0,1,.57,6,13.85,13.85,0,0,1-2.72,7.8,19.46,19.46,0,0,1-2.72,2.4l-2.06,1.7a13.23,13.23,0,0,0,1.87-.74l.28-.13a14.36,14.36,0,0,0,1.69-1l.24-.18a13.5,13.5,0,0,0,1.48-1.24l.09-.08a14.22,14.22,0,0,0,1.29-1.49l.24-.31a14.78,14.78,0,0,0,1-1.65,2.14,2.14,0,0,0,.1-.22,14.11,14.11,0,0,0,.73-1.69l.12-.31a14.15,14.15,0,0,0,.47-1.92c0-.14.05-.28.07-.42a14.24,14.24,0,0,0,.17-2.08,14.75,14.75,0,0,0-.12-1.77c0-.17-.05-.33-.08-.49-.07-.45-.16-.88-.27-1.31,0-.14-.07-.28-.11-.42a12.85,12.85,0,0,0-.58-1.61,1.3,1.3,0,0,0-.08-.17,12.29,12.29,0,0,0-.7-1.35c-.07-.13-.14-.25-.22-.37a12.07,12.07,0,0,0-.83-1.19l-.14-.2a15.86,15.86,0,0,0-1.17-1.28L124,104c-.12-.11-.26-.21-.39-.32A15.74,15.74,0,0,1,121.52,105.1Z"/><path class="cls-7" d="M120.64,126.07a19.46,19.46,0,0,0,2.72-2.4,13.85,13.85,0,0,0,2.72-7.8,14.9,14.9,0,0,0-.57-6,8.13,8.13,0,0,0-3.67-4.63l-.32-.16a19.18,19.18,0,0,1-2,1A9.73,9.73,0,1,1,113,104.7l.17-4.55c-.17,0-.34,0-.5,0h0a3.46,3.46,0,0,1,.28,2c-.1.91-.14,1.37-1.1,1.39a7.86,7.86,0,0,0-4.91,1.87,11.4,11.4,0,0,0-3.32,5.26,13.87,13.87,0,0,0-.17,8,11.76,11.76,0,0,0,4.65,6.47c2.45,1.62,5.44,2.17,8.28,2.93l.38.12h0a14.34,14.34,0,0,0,1.77-.46Z"/><polygon class="cls-7" points="112.68 100.18 112.68 100.18 112.68 100.18 112.68 100.18"/><path class="cls-7" d="M116.39,128.11c-2.84-.76-5.83-1.31-8.28-2.93a11.76,11.76,0,0,1-4.65-6.47,13.87,13.87,0,0,1,.17-8,11.4,11.4,0,0,1,3.32-5.26,7.86,7.86,0,0,1,4.91-1.87c1,0,1-.48,1.1-1.39a3.46,3.46,0,0,0-.28-2h0a13.66,13.66,0,0,0-3.72,1l-.05,0c-.3.12-.6.27-.89.41l-.31.15c-.26.14-.51.29-.76.44s-.26.15-.39.24-.44.3-.65.46l-.42.31-.58.49-.42.38c-.17.17-.34.34-.5.52s-.28.29-.41.44l-.44.54-.38.51c-.13.18-.26.36-.38.55s-.23.38-.34.57-.22.37-.32.57-.21.42-.31.63-.17.37-.25.57-.17.46-.25.69-.14.38-.2.57-.13.51-.2.77-.09.36-.13.54-.09.6-.13.91c0,.15,0,.3-.07.45a13.18,13.18,0,0,0-.07,1.41,14.21,14.21,0,0,0,14.19,14.19c.44,0,.88,0,1.31-.07s.67-.08,1-.14l.19,0Z"/><path class="cls-7" d="M112.68,100.18h0Z"/><path class="cls-7" d="M113,104.7a2.21,2.21,0,0,0,2.17-2.37,2.17,2.17,0,0,0-2-2.19h0l-.5,0h0a13.56,13.56,0,0,0-2.7.61,5.16,5.16,0,0,0-.22,1.49,4.94,4.94,0,0,0,1,3,9.59,9.59,0,0,1,2.28-.62Z"/><path class="cls-4" d="M110.73,105.32a9.64,9.64,0,1,0,8.79.82l-.54.22a9.27,9.27,0,1,1-7.94-.69A2.59,2.59,0,0,1,110.73,105.32Z"/><path class="cls-4" d="M124,103.34l-.17.15-.17.16.37.33.15.14a15.86,15.86,0,0,1,1.17,1.28l.14.2a12.07,12.07,0,0,1,.83,1.19c.08.12.15.24.22.37a12.29,12.29,0,0,1,.7,1.35,1.3,1.3,0,0,1,.08.17,12.85,12.85,0,0,1,.58,1.61c0,.14.07.28.11.42.11.43.2.86.27,1.31,0,.16.06.32.08.49a14.75,14.75,0,0,1,.12,1.77,14.24,14.24,0,0,1-.17,2.08c0,.14,0,.28-.07.42a12.84,12.84,0,0,1-.48,1.92c0,.1-.07.21-.11.31a14.11,14.11,0,0,1-.73,1.69,2.14,2.14,0,0,1-.1.22,14.78,14.78,0,0,1-1,1.65l-.24.31a14.22,14.22,0,0,1-1.29,1.49l-.09.08a13.5,13.5,0,0,1-1.48,1.24l-.24.18a14.36,14.36,0,0,1-1.69,1l-.28.13a13.73,13.73,0,0,1-1.9.77,14.73,14.73,0,0,1-1.74.43h0l-.2,0c-.33.06-.66.11-1,.14s-.87.07-1.31.07a14.21,14.21,0,0,1-14.19-14.19,13.18,13.18,0,0,1,.07-1.41c0-.15,0-.3.07-.45,0-.31.07-.61.13-.91s.09-.36.13-.54.13-.52.2-.77.13-.38.2-.57.16-.47.25-.69.17-.38.25-.57.2-.43.31-.63.21-.38.31-.57l.35-.57c.12-.19.25-.37.38-.55l.38-.51.44-.54c.13-.15.27-.3.41-.44s.33-.35.5-.52l.42-.38.58-.49.42-.31c.21-.16.43-.32.65-.46s.26-.16.39-.24.5-.3.76-.44l.31-.15c.29-.14.59-.29.89-.42h.05c.33-.14.68-.23,1-.34.06-.19.13-.38.2-.55A14.64,14.64,0,1,0,124,103.34Z"/><path class="cls-4" d="M112.65,100.19h0l.5,0h0a2.17,2.17,0,0,1,2,2.19A2.21,2.21,0,0,1,113,104.7h0a9.59,9.59,0,0,0-2.28.62,2.59,2.59,0,0,0,.31.35,9,9,0,0,1,1.93-.51,2.68,2.68,0,0,0,2.65-2.86,2.58,2.58,0,0,0-2.42-2.6h0a14,14,0,0,0-3,.56c-.07.17-.14.36-.2.55A13.56,13.56,0,0,1,112.65,100.19Z"/></g></g></g></g></svg>