<svg xmlns="http://www.w3.org/2000/svg" viewBox="0 0 154.18 232.55"><defs><style>.cls-1{fill:#fed1b1;}.cls-2{fill:#332f2d;}.cls-3{fill:#3d3634;}.cls-4{fill:#2b2522;}.cls-5{fill:#100;}.cls-6{fill:#040200;}.cls-7{fill:#efe4e4;}.cls-8{fill:#e1b495;}</style></defs><g id="Layer_2" data-name="Layer 2"><g id="final_result" data-name="final result"><g id="completed_100_" data-name="completed 100%"><g id="Head"><polygon id="Skin" class="cls-1" points="24.72 138.27 90.71 144.82 128.99 100.5 106.07 50.88 58.4 19.49 8.39 44.46 9.62 84.36 13.65 138.27 24.72 138.27"/><g id="Hair"><path class="cls-2" d="M104.06,118c.44,3.89,12.46,19.55,13.38,36.07.38,6.24-1.53,20.67-3.67,22.23-1.18.71-10.67,12.85-9.53,28-2.82,4.06-16.39,14.54-12.23,25-4.59-3.77-4.85-10.36-3.14-16.31,5.82-16.91.32-20.58-1.27-22.14-2.08,2.71-6.2,6.2-5.58,17.7-2-10.18-6-10.41-8.78-13.8-1.46-2.06-2.38-2.69-2.47-5.63-1.62,1.61-4.85,4.21-5.48,11.83s1.27,15.3.27,21.13c-.43,2.79-1.5,7.55-3.29,9.42-.06-4.71-3.71-10.2-7.46-15.23-4.29-5.24-7.9-16.35-4-25.93-1.65,2.07-10.53,18.29-11.14,32.88-.53-.9-5.92-32.43-8.06-35.43,3.69.43,8.64-2.53,9.07-11.88.27-3.93,2.93-17.59-4.35-28.41-1.35-1.85-3.77-7.39-5.82-9.83-.09-.56,1.88-5.38,4.46-4.73,3.89,1.36,12.82,4.38,22.29,4.26C71,137.39,82.33,134,85,132.67,91.92,129.82,102.26,122.07,104.06,118Z"/><path class="cls-3" d="M4.6,132.61c.45,4,7.76,20.48,8.05,28.64s-4.2,25.13-1.27,34.06S23,213,23.61,213.74c.59-2.78,2.81-7.85,2.67-12.54-.59-6.46-3.38-11.4,5.34-12.9,7.67-.52,10-2.46,10.84-18.84.67-15.32-8.46-27.32-11.83-31.68-.14-.28,1.08-5,4.2-4.76-.47-.4-8.77-3.77-10-5.83-.27-.45-1.14-.9-1.46-1.31-2-2.53-5-5.83-5.22-6.74S16.47,116,16,114.4c-.63-1.59-2.67-7.7-2.54-9.09-.21-1.57-.48-6.32-.1-7.3.12-3,1.74-7.8,3.13-10.53.39-.68.79-1.77.79-1.6S19,83.25,19,83.25a24,24,0,0,1-5.57-13.52c-.23-2.94,1-6.62,5.47-11.55.89-1,3.61-2.25,4.17-3A30.77,30.77,0,0,1,51.16,30.7c2.18-.46,2.38.4,3.14-1.61,8.25-18.22,16.15-25.37,22.78-27C39-1.61,15.89,16.72,9.49,42,6.67,49-5.86,68.43,4.6,90.25,9.26,110.05,1.84,115.59,4.6,132.61Z"/><path class="cls-4" d="M55.93,30.25c-2.44-.3-2.79,1.24-1.39-2.55,1.7-4.6,10.42-24.58,25-26.07S123.91,8.9,136.18,26.8c3.34,3.33,10.28,14.61,13.83,29,1.93,6.81,3.3,27.05-1.94,32.83-3.36,18.51,5.15,35.7,5.15,45.79,0,8.7-5,21.92-5.73,28.66-1.41,6.74,4.43,28.45,2.92,35.39-1.92,13.63-8.76,17.84-21.1,27.19l-.39-11.44S121,220,105.75,221c-2.69-12.39-5.43-29.43,6.87-45.36,12-33-10.17-42.82-10.93-50.82,1-7.34,14.11-18.33,9.33-46.84A18.4,18.4,0,0,1,99.54,65.65C95.63,43.12,79.18,32.11,55.93,30.25Z"/><path class="cls-5" d="M31.63,134.65c-.77,1.16-1.36,2.94-1.08,3.47,3.06,4,12.4,16.06,11.73,31.38-.38,17.42-4.68,17.75-9.76,17.28.21.31.2,1.22.46,1.4,7.86-.67,9.43-3.1,10.21-18.64s-8.71-27.83-11.83-31.85a6.85,6.85,0,0,1,1.71-3.36,2.63,2.63,0,0,1,2-.79l.61,0a16.17,16.17,0,0,0-2.07-.69A4.51,4.51,0,0,0,31.63,134.65Z"/><path class="cls-5" d="M54,30.5l-.87-.24C55.06,23,65.19,3.73,77.39,1.14l.19.88C65.76,4.53,55.89,23.41,54,30.5Z"/><path class="cls-5" d="M113.23,175.84l.06-.12c8.8-24.15-.49-36-6.63-43.77-1.17-1.48-2.21-2.8-3-4a7.05,7.05,0,0,1-.91-5.41,20.57,20.57,0,0,1,1.71-4.58c.73-1.51.2-.41,1-2.23l-.45.4c-.83,1.81-.64.68-1.32,1.54a20.2,20.2,0,0,0-2,5.13,7,7,0,0,0,.66,4.86,39.11,39.11,0,0,0,3.47,4.85c5.93,7.54,14.84,18.87,6.88,41.82a7.2,7.2,0,0,1-1,1.85c-7.18,9.79-8.77,20.14-8.5,28.93l1-1.19C104.23,195.24,105.93,185.29,113.23,175.84Z"/><path class="cls-5" d="M61.78,232.55l0-1.81c-.06-4.48-3.55-9.76-7.31-14.8-3.93-4.8-6.71-13.22-5.56-21.26-3.19,6.24-7.83,17.46-8.27,27.8l-.1,2.52-1.28-2.18c-.21-.36-.54-2-1.84-8.68-1.71-8.76-4.24-21.79-5.76-25.79-6.05,1.13-5.6,4-4.86,8.62.18,1.08.36,2.23.47,3.43.11,3.5-1,7-1.87,9.89-.35,1.12-.65,2.1-.81,2.87l-.32,1.48-1-1.15-.38-.41c-7.68-8.3-10.76-14.52-12-18.27C9,189,10.13,180,11.14,172a82.71,82.71,0,0,0,1-11.47c-.17-4.95-3-13.09-5.3-19.63C5.4,136.8,4.27,133.56,4.09,132c-1.28-7.84-.39-13.39.46-18.76,1-6.34,2.06-12.89-.45-23.52-9.16-19.07-.69-36.79,3.38-45.31C8.11,43,8.66,41.9,9,41,16.12,12.93,42.09-2.59,76.74.57l.21,0,.2,0A17.12,17.12,0,0,1,79.72.16C94.53-1.35,125,8.06,137,25.64c3.65,3.62,10.48,15.18,13.94,29.21,2,7,3.28,27.16-2,33.34-2.07,11.66.65,22.92,2.84,32,1.26,5.25,2.35,9.77,2.35,13.47,0,5.28-1.8,12.16-3.39,18.23a82.53,82.53,0,0,0-2.34,10.51v.08c-.67,3.19.41,10.25,1.46,17.07,1.16,7.54,2.25,14.67,1.46,18.32-1.82,12.9-8.21,17.72-18.8,25.69l-3.71,2.8-.41-11.57c-2.71,1.64-10.23,5.45-22.42,6.26l-.64,0-.13-.63a96.14,96.14,0,0,1-2.18-14.11l-1,1.1c-4.58,4.87-12.24,13-9.13,20.81L94,230.92l-2.23-1.83c-4.27-3.49-5.5-9.72-3.38-17.08,5.05-14.69,1.49-19-.44-20.81-2.1,3.25-5.39,11.15-5.19,17.08l.21,6.1-1.66-5.87c-1.46-5.16-5.5-10.5-8.41-14.07-.27-.39-.51-.69-.72-1a7.54,7.54,0,0,1-1.76-3.5c-1.6,1.66-3.68,4.42-4.16,10.27a68.33,68.33,0,0,0,.24,10.63,45.57,45.57,0,0,1,0,10.57c-.27,1.71-1.3,7.52-3.49,9.81Zm-8.14-47.49-1.94,4.78c-4,9.95.25,20.73,3.9,25.19,3.38,4.52,6.54,9.23,7.41,13.58a28.81,28.81,0,0,0,2-7.42c.51-3,.24-6.49,0-10.22a68.66,68.66,0,0,1-.23-10.86c.6-7.35,3.56-10.23,5.33-11.94l1.58-1.57,0,1.72a5.93,5.93,0,0,0,1.61,4.25l.72,1a55.13,55.13,0,0,1,7.41,11.22c.84-6.1,3.91-12.73,5.75-15.14l.51-.67.91.88c2,1.87,6.78,6.27,1.14,22.62-.78,2.71-2,8.91,1,13.4C89.88,218.23,96.7,211,101,206.42c.85-.91,1.6-1.71,2.18-2.4l1.24-1.46.07,1.91a87.12,87.12,0,0,0,2.1,15c14.4-1.1,22.06-6.6,22.14-6.66l1.13-.83.4,11.43,1.43-1.09c10.64-8,16.5-12.41,18.24-24.76.74-3.44-.38-10.76-1.47-17.84-1.11-7.24-2.16-14.09-1.45-17.56a85.63,85.63,0,0,1,2.37-10.69c1.57-6,3.35-12.77,3.35-17.86,0-3.52-1.08-8-2.32-13.12-2.23-9.25-5-20.76-2.82-32.8l0-.21.14-.15c5-5.51,3.66-25.51,1.78-32.13-3.37-13.63-10.13-25.14-13.64-28.64C124,9.34,94.36.17,79.86,1.63a15.66,15.66,0,0,0-2.45.45h-.06l-.1-.41,0,.43-.69.07,0-.13C42.7-1,17.36,14.06,10.43,41.45c-.41,1-1,2.2-1.62,3.56C4.54,54-3.42,70.61,5.5,89.19,8.12,100.26,7.05,107,6,113.43c-.88,5.5-1.7,10.68-.46,18.33a61.67,61.67,0,0,0,2.67,8.66c2.32,6.64,5.2,14.89,5.38,20.07a82.07,82.07,0,0,1-1,11.7c-1,7.79-2.12,16.63-.3,22.16,1.15,3.53,4,9.34,11.15,17.15.14-.51.31-1.06.49-1.65.85-2.74,1.9-6.16,1.81-9.36-.1-1.12-.28-2.23-.45-3.28-.74-4.64-1.44-9,6.4-10.38l.75-.07.31.48c1.56,3.43,4.28,17.38,6.07,26.62.26,1.34.52,2.66.75,3.83,2-13.26,9.26-26.59,10.84-28.59Z"/></g><path id="Outline" class="cls-5" d="M111.45,77.78l0-.15-.12-.11a5.21,5.21,0,0,0-1.42-.74,15.6,15.6,0,0,1-9.51-9.8l-.07-.45c-1.86-12.48-10-33.84-43.67-36.74h-.09c-26.14,0-32.52,19.08-33.9,25.34l-.07.32c.34-.17.69-.33,1-.47,1.5-6.42,7.94-24.28,32.89-24.28h.09c33,2.84,41,23.75,42.81,36l.09.53a16.48,16.48,0,0,0,10,10.42,9.47,9.47,0,0,1,1,.48c2.89,18.8-.53,33.49-10.19,43.65-12.52,13.18-33.3,16.17-48.56,14.57-21.09-2.85-30.59-9.06-36.3-23.71-4.66-14.45.36-24.37,3.85-29.07L18.7,83l-.2.24c-3.58,4.92-8.56,15.06-3.83,29.72,5.87,15,15.56,21.41,37.05,24.32a73.24,73.24,0,0,0,7.71.39c14.23,0,30.88-3.94,41.62-15.24C111,112,114.44,97,111.45,77.78Z"/></g><g id="Mouth"><path class="cls-6" d="M62.15,106.15l-.28-.36a8.52,8.52,0,0,0-2.61,3.28h0c-1.68,1.8-11.35,4.07-19.19,3.25-4-.41-6.72-1.61-7.84-3.46l-.39.24c1,1.71,3.31,2.89,6.61,3.46.5.09,1,.16,1.57.21,6.84.71,16-1,19-2.91a9.76,9.76,0,0,0,.77,7.07l.42-.19C57.48,110.86,60.26,107.58,62.15,106.15Z"/><path class="cls-5" d="M59.64,117.18l-.08-.17a10.28,10.28,0,0,1-.89-6.76c-3.32,1.83-12,3.39-18.68,2.71-.54-.06-1.07-.13-1.58-.22-3.35-.57-5.68-1.8-6.74-3.55l-.09-.15.7-.43.1.16c1.09,1.8,3.75,3,7.7,3.37,7.8.81,17.36-1.42,19-3.2a8.64,8.64,0,0,1,2.64-3.3l.15-.11.49.66-.14.11c-1.85,1.4-4.56,4.6-1.95,10.37l.08.17Zm-.35-7.75-.15.49a9.58,9.58,0,0,0,.68,6.77l.09,0c-2.53-5.74.08-9,2-10.53l0-.08a8.29,8.29,0,0,0-2.41,3.11l-.1.22-.07-.06c-2,1.81-11.51,4-19.22,3.19-4-.4-6.67-1.57-7.88-3.39l-.08,0c1.05,1.57,3.25,2.68,6.39,3.22.5.08,1,.16,1.56.21,6.68.69,15.94-1,18.84-2.88Z"/></g><g id="Eyes"><polygon class="cls-7" points="13.87 66.67 13.46 69.73 13.54 73.15 14.4 75.92 15.8 79.08 17.51 81.46 19.67 83.57 22.34 85.11 26.52 86.72 28.09 87.06 28.94 86.96 29.73 86.15 31.76 84.66 35.61 84.19 38.92 84.59 40.34 83.58 43.11 80.86 43.59 80.19 44.46 82.22 47.37 86.31 52.02 89.85 56.36 91.54 59.28 91.98 64.87 91.59 68.2 90.37 72.57 87.74 75.41 84.56 78.12 79.42 78.74 77.03 79.02 73.34 78.97 73.13 13.92 66.58 13.87 66.67"/><path class="cls-8" d="M30,54.17h-.19A16.37,16.37,0,0,0,14.12,66.7l28.51,2.82a18.26,18.26,0,0,1,2.31-5.66A16.39,16.39,0,0,0,30,54.17Z"/><path class="cls-8" d="M60.65,55.61h-.21A18,18,0,0,0,47.72,61a19.1,19.1,0,0,0-2.27,2.84l-.29.51a17.92,17.92,0,0,0-2.08,5.18l35.61,3.52a18,18,0,0,0-18-17.48Z"/><circle class="cls-5" cx="58.94" cy="76.16" r="3.5"/><circle class="cls-5" cx="28.31" cy="73.01" r="3.5"/><path class="cls-5" d="M81.65,72.67l-.29-.36a4.56,4.56,0,0,1-2.23.55A18.48,18.48,0,0,0,60.65,55.15h-.21a18.46,18.46,0,0,0-13,5.57,19.15,19.15,0,0,0-2.18,2.69A16.81,16.81,0,0,0,30,53.71h-.19A16.78,16.78,0,0,0,23.62,55c-.35.14-.7.3-1,.47l-.31.15a16.89,16.89,0,0,0-8.54,10.85,5,5,0,0,1-2.52-.92l-.33.31a5.33,5.33,0,0,0,2.74,1,16.51,16.51,0,0,0,5,16l.12.11.68.59a16.74,16.74,0,0,0,9.16,3.73h0a5.08,5.08,0,0,0,1.47,6,5.71,5.71,0,0,0,3.7,1.27,11.78,11.78,0,0,0,6.84-2.73l-.27-.37c-3.84,2.89-7.57,3.45-10,1.48A4.62,4.62,0,0,1,29,87.47c0-.06.08-.11.11-.17a4.21,4.21,0,0,1,.28-.45c1.44-2,4.62-2.82,8.79-2.13l.69.11.14-.09a16,16,0,0,0,4.5-4.15A18.49,18.49,0,0,0,60.64,92.21h.21A18.52,18.52,0,0,0,79.17,73.48a.81.81,0,0,0,0-.16A5,5,0,0,0,81.65,72.67Zm-36.2-8.79A19.1,19.1,0,0,1,47.72,61a18,18,0,0,1,12.72-5.43h.21a18,18,0,0,1,18,17.27L43.14,69.35a17.86,17.86,0,0,1,2-5Zm-22-8.35a16.14,16.14,0,0,1,6.33-1.36H30a16.39,16.39,0,0,1,14.93,9.69,18,18,0,0,0-2.25,5.45l-28.5-2.83A16.44,16.44,0,0,1,23.49,55.53ZM41.7,82a16.62,16.62,0,0,1-3,2.39c-4.75-.92-8.38,0-9.9,2.47A16.23,16.23,0,0,1,14.08,66.92l28.51,2.83a17.82,17.82,0,0,0-.47,4.14,18.41,18.41,0,0,0,1.15,6.19A17.48,17.48,0,0,1,41.7,82Zm19.15,9.79h-.21A18.09,18.09,0,0,1,43.79,80.14c-.07-.17-.14-.34-.2-.51A17.2,17.2,0,0,1,43,69.8l35.67,3.54s0,.09,0,.14A18.1,18.1,0,0,1,60.85,91.76Z"/></g><g id="Eyebrows"><path class="cls-5" d="M73.59,48.76c-5.31-6.1-12.48-4.39-17-1.08L56,47c4.84-3.55,12.52-5.36,18.23,1.21Z"/><path class="cls-5" d="M22.08,47l-.66-.62c6-6.32,13.59-4.18,18.27-.43l-.57.72C34.73,43.16,27.64,41.15,22.08,47Z"/></g></g></g></g></svg>