<svg xmlns="http://www.w3.org/2000/svg" viewBox="0 0 154.18 232.55"><defs><style>.cls-1{fill:#332f2d;}.cls-2{fill:#3d3634;}.cls-3{fill:#2b2522;}.cls-4{fill:#100;}.cls-5{fill:#fed1b1;}.cls-6{fill:#fff;}.cls-7{fill:#efe4e4;}.cls-8{fill:none;}.cls-9{fill:#c3b777;}.cls-10{fill:#908a5b;}.cls-11{fill:#e0d596;}.cls-12{fill:#69584e;}</style></defs><g id="Layer_2" data-name="Layer 2"><g id="final_result" data-name="final result"><g id="Dio"><g id="Hair"><path class="cls-1" d="M104.06,118c.43,3.89,12.46,19.55,13.38,36.07.38,6.24-1.53,20.66-3.67,22.23-1.18.71-10.67,12.84-9.53,28-2.82,4.06-16.39,14.54-12.23,25-4.6-3.76-4.85-10.35-3.14-16.3,5.82-16.91.32-20.58-1.27-22.15-2.08,2.72-6.2,6.21-5.58,17.71-2-10.18-6-10.41-8.78-13.8-1.46-2.06-2.38-2.69-2.47-5.64-1.62,1.62-4.85,4.22-5.48,11.84s1.27,15.3.27,21.13c-.43,2.79-1.5,7.55-3.29,9.42-.06-4.71-3.71-10.2-7.46-15.23-4.29-5.24-7.9-16.35-4-25.93-1.65,2.07-10.53,18.29-11.14,32.88-.53-.9-5.92-32.43-8.07-35.44,3.7.44,8.65-2.52,9.08-11.87.27-3.93,2.93-17.59-4.35-28.41-1.35-1.85-3.77-7.39-5.82-9.83-.1-.56,1.88-5.38,4.46-4.73,3.89,1.36,12.82,4.38,22.29,4.26C71,137.39,82.33,134,85,132.67,91.92,129.81,102.26,122.06,104.06,118Z"/><path class="cls-2" d="M4.6,132.61c.45,4,7.76,20.48,8.05,28.64s-4.2,25.13-1.27,34.06S23,213,23.61,213.74c.59-2.78,2.81-7.85,2.67-12.54-.59-6.46-3.38-11.4,5.34-12.9,7.67-.52,10-2.46,10.84-18.84.67-15.32-8.46-27.32-11.83-31.68-.14-.28,1.07-5,4.2-4.76-.47-.4-8.77-3.77-10-5.83-.27-.45-1.14-.9-1.46-1.31-2-2.53-5-5.83-5.22-6.75S16.47,116,16,114.4c-.63-1.59-2.67-7.7-2.54-9.09-.21-1.57-.48-6.32-.1-7.3.12-3,1.74-7.8,3.13-10.53.39-.69.79-1.77.79-1.6S19,83.25,19,83.25a24.07,24.07,0,0,1-5.58-13.52c-.22-2.94,1-6.62,5.48-11.55.89-1,3.61-2.25,4.17-3A30.77,30.77,0,0,1,51.16,30.7c2.18-.46,2.38.4,3.14-1.61,8.25-18.22,16.15-25.37,22.78-27C39-1.62,15.89,16.72,9.49,42,6.67,49-5.86,68.43,4.6,90.25,9.26,110,1.83,115.58,4.6,132.61Z"/><path class="cls-3" d="M55.93,30.24c-2.44-.29-2.79,1.25-1.39-2.54,1.7-4.6,10.42-24.58,25-26.07S123.91,8.9,136.18,26.8c3.34,3.33,10.28,14.61,13.83,29,1.93,6.81,3.3,27.05-1.94,32.83-3.36,18.51,5.15,35.7,5.15,45.78,0,8.71-5,21.93-5.73,28.67-1.41,6.74,4.43,28.45,2.92,35.38-1.92,13.64-8.76,17.84-21.1,27.2l-.39-11.44S121,220,105.75,221c-2.69-12.39-5.43-29.43,6.87-45.36,12-33-10.17-42.82-10.93-50.83,1-7.33,14.11-18.32,9.33-46.83A18.4,18.4,0,0,1,99.54,65.65C95.63,43.12,79.18,32.11,55.93,30.24Z"/><path class="cls-4" d="M31.63,134.65c-.77,1.16-1.36,2.94-1.08,3.47,3.06,4,12.4,16.06,11.73,31.38-.38,17.42-4.68,17.75-9.76,17.28.21.31.2,1.22.46,1.4,7.86-.67,9.43-3.1,10.21-18.64s-8.71-27.83-11.83-31.85a6.72,6.72,0,0,1,1.71-3.36,2.63,2.63,0,0,1,2-.79l.61,0a16.17,16.17,0,0,0-2.07-.69A4.51,4.51,0,0,0,31.63,134.65Z"/><path class="cls-4" d="M54,30.49l-.87-.23C55.06,23,65.19,3.73,77.39,1.13l.19.89C65.76,4.53,55.89,23.41,54,30.49Z"/><path class="cls-4" d="M113.23,175.84l.06-.13c8.8-24.14-.49-36-6.63-43.76-1.17-1.48-2.21-2.8-3-4a7.06,7.06,0,0,1-.91-5.41,20.8,20.8,0,0,1,1.71-4.59c.73-1.5.2-.4,1-2.22l-1.36,2.3c-.83,1.81-.33.28-1,1.13a10,10,0,0,0-1.35,3.64,6.9,6.9,0,0,0,.66,4.86,39.11,39.11,0,0,0,3.47,4.85c5.93,7.54,14.84,18.87,6.87,41.82a6.88,6.88,0,0,1-1,1.85c-7.18,9.79-8.77,20.14-8.5,28.93l1-1.2C104.23,195.24,105.93,185.29,113.23,175.84Z"/><path class="cls-4" d="M61.78,232.55l0-1.81c-.06-4.48-3.55-9.76-7.32-14.8-3.93-4.8-6.7-13.23-5.54-21.27-3.2,6.24-7.84,17.46-8.28,27.81l-.1,2.51-1.28-2.17c-.2-.34-.46-1.56-1.85-8.68-1.69-8.74-4.22-21.74-5.74-25.77-6.05,1.18-5.6,4-4.87,8.6.18,1.08.36,2.23.47,3.43.1,3.5-1,7-1.87,9.89-.35,1.12-.65,2.09-.81,2.87l-.32,1.48-1-1.15c-.05-.07-.18-.21-.36-.4-7.69-8.3-10.77-14.52-12-18.28C9,189,10.13,180,11.14,172a82.46,82.46,0,0,0,1-11.46c-.17-4.95-3-13.08-5.29-19.62-1.44-4.11-2.57-7.36-2.75-9-1.28-7.85-.39-13.39.46-18.76,1-6.34,2.06-12.89-.45-23.52-9.16-19.07-.69-36.79,3.37-45.31C8.11,43,8.66,41.9,9,41c7.09-28,33-43.57,67.71-40.41h0l.27,0,.14,0A18.67,18.67,0,0,1,79.71.15C94.52-1.34,125,8.06,137,25.64c3.65,3.62,10.48,15.18,13.94,29.21,2,7,3.28,27.16-2,33.34-2.07,11.66.65,22.93,2.84,32,1.26,5.25,2.35,9.77,2.35,13.47,0,5.28-1.8,12.16-3.39,18.23a82.15,82.15,0,0,0-2.34,10.51v.08c-.67,3.19.41,10.25,1.46,17.07,1.16,7.54,2.25,14.67,1.46,18.32-1.82,12.91-8.21,17.72-18.81,25.69l-3.71,2.8-.4-11.57c-2.71,1.64-10.24,5.44-22.42,6.26l-.64,0-.14-.63a97.79,97.79,0,0,1-2.17-14.11l-1,1.1c-4.58,4.87-12.24,13-9.13,20.81L94,230.92l-2.23-1.83c-4.27-3.5-5.5-9.72-3.38-17.08,5.05-14.69,1.49-19-.44-20.81-2.1,3.24-5.39,11.14-5.19,17.08l.21,6.09-1.66-5.86c-1.46-5.17-5.5-10.5-8.41-14.07l-.72-1a7.45,7.45,0,0,1-1.76-3.5c-1.6,1.66-3.68,4.42-4.16,10.27a68.33,68.33,0,0,0,.24,10.63,45.57,45.57,0,0,1,0,10.57c-.27,1.71-1.3,7.51-3.49,9.81Zm-8.15-47.47-1.93,4.76c-4,9.95.25,20.73,3.9,25.19,3.38,4.51,6.53,9.22,7.4,13.57a29.22,29.22,0,0,0,2-7.41c.51-3,.24-6.49,0-10.22a68.66,68.66,0,0,1-.23-10.86c.6-7.35,3.56-10.22,5.33-11.94l1.57-1.57,0,1.72a6,6,0,0,0,1.62,4.25l.72,1a54.85,54.85,0,0,1,7.41,11.22c.84-6.1,3.91-12.73,5.75-15.14l.51-.67.91.88c2,1.87,6.77,6.27,1.14,22.62-.77,2.71-2,8.91,1,13.4C89.88,218.22,96.7,211,101,206.41c.85-.9,1.61-1.71,2.19-2.39l1.24-1.46.07,1.91a87.12,87.12,0,0,0,2.1,15c14.4-1.1,22.06-6.6,22.14-6.66l1.13-.83.4,11.43,1.43-1.09c10.64-8,16.5-12.41,18.24-24.76.74-3.44-.38-10.76-1.47-17.83-1.11-7.25-2.16-14.1-1.45-17.57a86.12,86.12,0,0,1,2.37-10.7c1.57-6,3.35-12.76,3.35-17.85,0-3.52-1.07-8-2.32-13.12-2.23-9.24-5-20.76-2.81-32.8l0-.21.14-.15c5-5.51,3.66-25.51,1.78-32.13-3.37-13.63-10.13-25.14-13.64-28.64C124,9.33,94.36.14,79.86,1.63q-.35,0-.69.09l-1.1.22h0l-.7.14h0l-.07-.33,0,.33-.7.07,0-.12c-33.87-3.08-59.2,12-66.12,39.4-.42,1-1,2.21-1.63,3.57C4.54,54-3.42,70.61,5.5,89.19,8.12,100.26,7.05,107,6,113.43c-.88,5.49-1.71,10.68-.46,18.33a60.75,60.75,0,0,0,2.68,8.67c2.31,6.63,5.19,14.88,5.37,20.06a82.07,82.07,0,0,1-1,11.7c-1,7.79-2.12,16.63-.3,22.16,1.16,3.53,4,9.34,11.14,17.15.15-.51.32-1.06.5-1.65.85-2.74,1.9-6.16,1.81-9.36-.11-1.12-.28-2.23-.45-3.29-.74-4.63-1.44-9,6.4-10.37l.51,0,.55.44c1.56,3.42,4.28,17.38,6.07,26.61.26,1.35.52,2.66.75,3.84,2-13.28,9.26-26.59,10.84-28.59Z"/></g><g id="Face"><path id="Skin" class="cls-5" d="M61,137.6l15.3-1.89,5.34-1.63,5.16-2,4.58-2.21L99,124.39l1.87-2.06s4.1-5,4.27-5.16,2.93-5.18,2.93-5.18,1.53-4.41,1.6-4.43,3-.36,3-.36l5.92-1.15,6.54-4.1,1-1.71,2.77-5.14.35-5.43-.84-5-2.11-3.55-3.93-2.68-6.76-1.2-4.13,1-2-1.13L104,73.27l-2.73-4-1.37-4.48-1.13-4.92-2.25-6.07-3-5L89.81,44,84.23,39.1,72.14,32.8l-9.76-2s-6.28-.76-6.35-.74-6.88.6-6.88.6-5.08,1.13-5.16,1.2-5.58,2.2-5.58,2.2L35,36.2l-4.7,4.73-2.94,4.14-3.53,7-.53,3.09L28.38,73,18.24,84.42l-2.87,5.4-1.71,6.24s-.4,6-.4,6.07.44,5.15.44,5.15l1.44,6.07,3.2,6.43,7.26,8.47,5.75,3.48,6.52,2.47,11.73,2.62,8,.78Z"/><path id="Outline" class="cls-4" d="M129.37,87.89c-.6-5.9-4.34-9.84-10.24-10.83a18.32,18.32,0,0,0-7.51.39,5.65,5.65,0,0,0-1.36-.7,15.66,15.66,0,0,1-9.54-9.84l-.07-.45c-1.86-12.52-10-34-43.83-36.88h-.1c-26.23,0-32.64,19.16-34,25.44l-.06.32c.34-.17.68-.33,1-.47,1.51-6.44,8-24.38,33-24.38h.09c33.13,2.86,41.14,23.85,43,36.11l.1.54A16.53,16.53,0,0,0,109.91,77.6l.52.22c-2.18.78-3.89,2-4.54,3.39l.84.39c.54-1.18,2.16-2.28,4.3-3,.28-.09.58-.17.88-.25A17,17,0,0,1,119,78c3.21.53,8.71,2.54,9.47,10,.57,7.74-2.11,13.47-7.73,16.58A21.17,21.17,0,0,1,110.48,107c-.34,0-.66,0-1,0a5.5,5.5,0,0,1-2.25-.47l-.55.75a5.91,5.91,0,0,0,2.5.64,38.81,38.81,0,0,1-8.49,14C88.16,135.12,67.31,138.12,52,136.52c-21.16-2.86-30.7-9.09-36.43-23.81-4.68-14.49.36-24.45,3.86-29.17L18.73,83l-.2.24c-3.6,4.93-8.6,15.12-3.85,29.83,5.89,15.11,15.62,21.5,37.2,24.41a73.57,73.57,0,0,0,7.73.4c14.29,0,31-4,41.78-15.3a39.55,39.55,0,0,0,8.78-14.62l.61,0a22.18,22.18,0,0,0,10.38-2.57C125.32,103.06,130.12,98.16,129.37,87.89Z"/></g><g id="Eyebrows"><path class="cls-4" d="M73.82,48.62C68.5,42.5,61.3,44.21,56.75,47.54l-.54-.74c4.86-3.56,12.57-5.37,18.31,1.22Z"/><path class="cls-4" d="M22.12,46.87l-.66-.63c6-6.34,13.64-4.19,18.34-.42l-.58.71C34.83,43,27.71,41,22.12,46.87Z"/></g><g id="_3" data-name="3"><path class="cls-6" d="M68.34,103.14c-1.61-1.21-4.61-.67-6.88.24a29,29,0,0,1-11.82,2.24c-.55,0-1.11-.05-1.69-.11a81.33,81.33,0,0,1-12-2.42,20.08,20.08,0,0,0-2.61-.61h0a3.49,3.49,0,0,0-3.1,1.89,4.75,4.75,0,0,0-.05,5.31c5.07,6.57,16.54,8.19,25.06,6.92,7.54-1.13,12.82-4.22,14.13-8.29C69.89,105.78,69.53,104,68.34,103.14Z"/><path class="cls-4" d="M68.57,102.86c-2.19-1.65-6.11-.28-7.26.19a28.73,28.73,0,0,1-11.67,2.21,15.58,15.58,0,0,1-1.65-.11,80.74,80.74,0,0,1-11.89-2.41,19.61,19.61,0,0,0-2.68-.62A3.81,3.81,0,0,0,30,104.18a5.08,5.08,0,0,0,0,5.71h0c3.38,4.39,9.55,6.61,15.82,7.26a39.2,39.2,0,0,0,9.6-.19c7.69-1.15,13.08-4.34,14.44-8.56C70.29,105.71,69.88,103.85,68.57,102.86Zm.84,5.45c-1.31,4.07-6.59,7.16-14.13,8.29-8.52,1.27-20-.35-25.06-6.92a4.75,4.75,0,0,1,.05-5.31,3.49,3.49,0,0,1,3.1-1.89h0a20.08,20.08,0,0,1,2.61.61,81.33,81.33,0,0,0,12,2.42c.58.06,1.14.1,1.69.11a29,29,0,0,0,11.82-2.24c2.27-.91,5.27-1.45,6.88-.24C69.53,104,69.89,105.78,69.41,108.31Z"/><line class="cls-6" x1="47.61" y1="116.94" x2="48.35" y2="105.55"/><polygon class="cls-4" points="47.42 116.93 48.16 105.54 48.54 105.56 47.8 116.95 47.42 116.93"/><line class="cls-6" x1="59.8" y1="104" x2="62.49" y2="114.65"/><polygon class="cls-4" points="62.31 114.69 59.61 104.04 59.98 103.97 62.68 114.61 62.31 114.69"/><line class="cls-6" x1="38.43" y1="103.72" x2="35.66" y2="114.02"/><polygon class="cls-4" points="35.85 114.07 35.48 113.97 38.25 103.67 38.62 103.77 35.85 114.07"/><g id="eye_base" data-name="eye base"><circle class="cls-7" cx="60.47" cy="73.52" r="18.43"/><path class="cls-8" d="M24.48,85.82A18,18,0,0,1,22.41,85,15.76,15.76,0,0,0,24.48,85.82Z"/><path class="cls-8" d="M17.85,81.7A18.5,18.5,0,0,0,19.23,83c.15.12.31.21.46.32A16.48,16.48,0,0,1,17.85,81.7Z"/><path class="cls-8" d="M40.06,83c-.19.16-.39.3-.59.45C39.67,83.26,39.87,83.12,40.06,83Z"/><path class="cls-8" d="M28.44,86.65h0s0,0,0-.05A16.69,16.69,0,0,1,24.93,86,15.7,15.7,0,0,0,28.44,86.65Z"/><path class="cls-8" d="M21.67,84.61c-.31-.18-.61-.37-.91-.56C21.06,84.24,21.36,84.43,21.67,84.61Z"/><path class="cls-8" d="M38.39,84.17h0l.32-.22-.36.22Z"/><path class="cls-7" d="M38.35,84.17l.36-.22c.26-.17.51-.36.76-.54s.4-.29.59-.45a14.77,14.77,0,0,0,1.32-1.19A15.58,15.58,0,0,0,43,79.88a18.6,18.6,0,0,1-1.15-6.23,18.23,18.23,0,0,1,.51-4.38,18.6,18.6,0,0,1,2.32-5.69,16.45,16.45,0,0,0-15-9.74h-.19A16.35,16.35,0,0,0,19.69,83.3c.34.26.7.51,1.07.75s.6.38.91.56.49.24.74.36a18,18,0,0,0,2.07.85l.45.14a16.69,16.69,0,0,0,3.56.64C30,84.18,33.63,83.27,38.35,84.17Z"/><path class="cls-7" d="M44.63,63.58h0c.08.18.15.36.22.53C44.78,63.94,44.71,63.76,44.63,63.58Z"/><path class="cls-8" d="M28.25,87a1.19,1.19,0,0,0-.09.15h0A1.19,1.19,0,0,1,28.25,87Z"/><path class="cls-7" d="M43.28,79.43c-.1.15-.22.3-.33.45h0C43.06,79.73,43.18,79.58,43.28,79.43Z"/><path class="cls-4" d="M24.93,86l-.45-.14Z"/><path class="cls-4" d="M13.67,66.43A16.46,16.46,0,0,1,29.45,53.84h.19a16.45,16.45,0,0,1,15,9.74h0c.08.18.15.36.22.53a1.76,1.76,0,0,0,.14-.23A16.55,16.55,0,1,0,17.85,81.7a16.26,16.26,0,0,1-4.18-15.27Z"/><path class="cls-4" d="M39.47,83.41c-.25.18-.5.37-.76.54C39,83.78,39.22,83.59,39.47,83.41Z"/><path class="cls-4" d="M22.41,85c-.25-.12-.5-.23-.74-.36C21.91,84.74,22.16,84.85,22.41,85Z"/><path class="cls-4" d="M20.76,84.05c-.37-.24-.73-.49-1.07-.75C20,83.56,20.39,83.81,20.76,84.05Z"/><path class="cls-4" d="M43,79.88h0a15.58,15.58,0,0,1-1.57,1.89A14.77,14.77,0,0,1,40.06,83a16.59,16.59,0,0,0,3.24-3.5l0,0C43.18,79.58,43.06,79.73,43,79.88Z"/><path class="cls-4" d="M79,72.71A18.59,18.59,0,0,0,60.42,54.83h-.21a18.56,18.56,0,0,0-13.11,5.6,19.23,19.23,0,0,0-2.18,2.7,16.91,16.91,0,0,0-15.28-9.75h-.19a16.84,16.84,0,0,0-6.24,1.28c-.35.14-.7.3-1,.47l-.31.16a17,17,0,0,0-8.67,11.16,16.63,16.63,0,0,0-.45,4,16.81,16.81,0,0,0,5.41,12.18l.12.11.68.59a16.85,16.85,0,0,0,9.21,3.75,1.19,1.19,0,0,1,.09-.15,1.19,1.19,0,0,0-.09.15h0a5.1,5.1,0,0,0,1.47,6.06,5.78,5.78,0,0,0,3.72,1.27,11.81,11.81,0,0,0,6.88-2.74L40,91.32c-3.85,2.91-7.6,3.46-10,1.48a4.65,4.65,0,0,1-1.35-5.5c0-.06.08-.11.11-.17a5,5,0,0,1,.29-.45h0l.05-.06c1.46-2,4.6-2.76,8.72-2.09h0c.24,0,.46.06.7.11l.14-.09a16.45,16.45,0,0,0,3.08-2.47,18,18,0,0,0,1.44-1.7A18.59,18.59,0,0,0,60.41,92.07h.21A18.63,18.63,0,0,0,79,73.24C79,73.06,79,72.89,79,72.71ZM60.62,91.61h-.21A18.17,18.17,0,0,1,43.48,79.94c-.06-.16-.13-.32-.18-.48A16.59,16.59,0,0,1,40.06,83c-.19.16-.39.3-.59.45s-.5.37-.76.54l-.32.22h0c-4.72-.9-8.32,0-9.86,2.43,0,0,0,0,0,.05h0A15.7,15.7,0,0,1,24.93,86l-.45-.14A15.76,15.76,0,0,1,22.41,85c-.25-.12-.5-.23-.74-.36s-.61-.37-.91-.56-.73-.49-1.07-.75c-.15-.11-.31-.2-.46-.32a18.5,18.5,0,0,1-1.38-1.28A16.55,16.55,0,1,1,45,63.88c0-.09.1-.19.16-.28h0a18.75,18.75,0,0,1,2.28-2.85,18.05,18.05,0,0,1,12.78-5.46h.21A18.14,18.14,0,0,1,78.55,72.85c0,.13,0,.26,0,.4A18.18,18.18,0,0,1,60.62,91.61Z"/><path class="cls-4" d="M42.31,69.27a18.23,18.23,0,0,0-.51,4.38A18.6,18.6,0,0,0,43,79.88c.11-.15.23-.3.33-.45a18.44,18.44,0,0,1,1.57-15.32c-.07-.17-.14-.35-.22-.53A18.6,18.6,0,0,0,42.31,69.27Z"/></g><circle class="cls-4" cx="54.7" cy="75.27" r="3.54"/><circle class="cls-4" cx="26.71" cy="71.73" r="3.54"/><path class="cls-4" d="M19.13,57.4h0A2.71,2.71,0,0,1,16.74,55a.22.22,0,0,1,.21-.25.26.26,0,0,1,.25.21,2.26,2.26,0,0,0,1.95,2,.23.23,0,0,1,0,.46Z"/><path class="cls-4" d="M73.85,61.11h0a2.7,2.7,0,0,0,2.37-2.39.23.23,0,0,0-.21-.25.25.25,0,0,0-.25.21,2.27,2.27,0,0,1-2,2,.23.23,0,0,0-.21.25A.24.24,0,0,0,73.85,61.11Z"/></g><g id="dio-2" data-name="dio"><path class="cls-9" d="M111.23,111.58a3.47,3.47,0,0,0,2.09-2,5.42,5.42,0,0,0,0-4.51c-.58-1.26-1.22-1.83-1.82-1.59a1.51,1.51,0,0,0-.81,1.45c.62,2.06.32,3.38-.17,3.92a.93.93,0,0,1-.32.24c0,.11-.09.22-.12.32a2.61,2.61,0,0,0-.12.79,2.64,2.64,0,0,0,.17.88,1.32,1.32,0,0,0,.33.5.39.39,0,0,0,.1.08A2.92,2.92,0,0,0,111.23,111.58Z"/><path class="cls-4" d="M113.47,109.67a5.61,5.61,0,0,0-.06-4.64c-.79-1.73-1.53-1.86-2-1.67a1.66,1.66,0,0,0-.9,1.65c.6,2,.32,3.25-.14,3.76a.64.64,0,0,1-.17.16V109c.66-.4,1.06-1.81.39-4-.24-.68,1.24-3.29,2.77.09,1.32,2.9,0,6-2.08,6.58a3.41,3.41,0,0,1-.61.11.54.54,0,0,0,.31,0v0l.33-.08A3.62,3.62,0,0,0,113.47,109.67Z"/><path class="cls-4" d="M110.47,108.88c.49-.54.79-1.86.17-3.92a1.51,1.51,0,0,1,.81-1.45c.6-.24,1.24.33,1.82,1.59a5.42,5.42,0,0,1,0,4.51,3.47,3.47,0,0,1-2.09,2,2.92,2.92,0,0,1-.72.11.61.61,0,0,0,.14.07,3.41,3.41,0,0,0,.61-.11c2.06-.59,3.4-3.68,2.08-6.58-1.53-3.38-3-.77-2.77-.09.67,2.23.27,3.64-.39,4l0,.1A.93.93,0,0,0,110.47,108.88Z"/><path class="cls-10" d="M110.08,111.11a2.64,2.64,0,0,1-.17-.88,2.61,2.61,0,0,1,.12-.79c0-.1.09-.21.12-.32a.84.84,0,0,1-.54.08,1.25,1.25,0,0,1-1.18-1.29,7.49,7.49,0,0,1-.79-.18l-.41-.1a3.21,3.21,0,0,0,.87,3.12,3.27,3.27,0,0,0,2.41.94.39.39,0,0,1-.1-.08A1.32,1.32,0,0,1,110.08,111.11Z"/><path class="cls-4" d="M110.65,111.76a3.35,3.35,0,0,1-3.48-4.23c.42.09.9.25,1.34.31a1.18,1.18,0,0,0,1.12,1.28.76.76,0,0,0,.55-.1v-.09a.7.7,0,0,1-.54.11,1.1,1.1,0,0,1-1-1.2v-.07h-.06a6.65,6.65,0,0,1-.84-.18l-.49-.13h-.08l0,.07a3.38,3.38,0,0,0,.9,3.36,4.61,4.61,0,0,0,.55.44,3.43,3.43,0,0,0,2.41.5v0A.54.54,0,0,1,110.65,111.76Z"/><path class="cls-4" d="M109.63,109.12a1.18,1.18,0,0,1-1.12-1.28c-.44-.06-.92-.22-1.34-.31a3.35,3.35,0,0,0,3.48,4.23.61.61,0,0,1-.14-.07,3.27,3.27,0,0,1-2.41-.94,3.21,3.21,0,0,1-.87-3.12l.41.1a7.49,7.49,0,0,0,.79.18,1.25,1.25,0,0,0,1.18,1.29.84.84,0,0,0,.54-.08l0-.1A.76.76,0,0,1,109.63,109.12Z"/><path class="cls-11" d="M111.54,105.39a.85.85,0,0,0,0,.39l.06.72.19,2.39a.64.64,0,0,0,0,.24.26.26,0,0,0,.18.16.88.88,0,0,0,.44-.74,3.07,3.07,0,0,0-.06-.52,3.87,3.87,0,0,1,0-.59,7.37,7.37,0,0,0-.1-1.48,2,2,0,0,0-.25-.75C111.87,105,111.61,105.21,111.54,105.39Z"/><circle class="cls-12" cx="114.9" cy="102.38" r="0.7"/><circle class="cls-12" cx="117.93" cy="101.06" r="0.7"/><circle class="cls-12" cx="120.95" cy="99.73" r="0.7"/></g></g></g></g></svg>