<svg xmlns="http://www.w3.org/2000/svg" viewBox="0 0 154.18 232.55"><defs><style>.cls-1{fill:#332f2d;}.cls-2{fill:#3d3634;}.cls-3{fill:#2b2522;}.cls-4{fill:#100;}.cls-5{fill:#87323f;}.cls-6{fill:#a33848;}.cls-7{fill:#ffadc0;}.cls-8{fill:#fed1b1;}.cls-9{fill:#efe4e4;}.cls-10{fill:none;}</style></defs><g id="Layer_2" data-name="Layer 2"><g id="final_result" data-name="final result"><g id="Polnareff"><g id="Hair"><path class="cls-1" d="M104.06,118c.43,3.89,12.46,19.55,13.38,36.07.38,6.24-1.53,20.66-3.67,22.23-1.18.71-10.67,12.84-9.53,28-2.82,4.06-16.39,14.54-12.23,25-4.6-3.76-4.85-10.35-3.14-16.3,5.82-16.91.32-20.58-1.27-22.15-2.08,2.72-6.2,6.21-5.58,17.71-2-10.18-6-10.41-8.78-13.8-1.46-2.06-2.38-2.69-2.47-5.64-1.62,1.62-4.85,4.22-5.48,11.84s1.27,15.3.27,21.13c-.43,2.79-1.5,7.55-3.29,9.42-.06-4.71-3.71-10.2-7.46-15.23-4.29-5.24-7.9-16.35-4-25.93-1.65,2.07-10.53,18.29-11.14,32.88-.53-.9-5.92-32.43-8.07-35.44,3.7.44,8.65-2.52,9.08-11.87.27-3.93,2.93-17.59-4.35-28.41-1.35-1.85-3.77-7.39-5.82-9.83-.1-.56,1.88-5.38,4.46-4.73,3.89,1.36,12.82,4.38,22.29,4.26C71,137.39,82.33,134,85,132.67,91.92,129.81,102.26,122.06,104.06,118Z"/><path class="cls-2" d="M4.6,132.61c.45,4,7.76,20.48,8.05,28.64s-4.2,25.13-1.27,34.06S23,213,23.61,213.74c.59-2.78,2.81-7.85,2.67-12.54-.59-6.46-3.38-11.4,5.34-12.9,7.67-.52,10-2.46,10.84-18.84.67-15.32-8.46-27.32-11.83-31.68-.14-.28,1.07-5,4.2-4.76-.47-.4-8.77-3.77-10-5.83-.27-.45-1.14-.9-1.46-1.31-2-2.53-5-5.83-5.22-6.75S16.47,116,16,114.4c-.63-1.59-2.67-7.7-2.54-9.09-.21-1.57-.48-6.32-.1-7.3.12-3,1.74-7.8,3.13-10.53.39-.69.79-1.77.79-1.6S19,83.25,19,83.25a24.07,24.07,0,0,1-5.58-13.52c-.22-2.94,1-6.62,5.48-11.55.89-1,3.61-2.25,4.17-3A30.77,30.77,0,0,1,51.16,30.7c2.18-.46,2.38.4,3.14-1.61,8.25-18.22,16.15-25.37,22.78-27C39-1.62,15.89,16.72,9.49,42,6.67,49-5.86,68.43,4.6,90.25,9.26,110,1.83,115.58,4.6,132.61Z"/><path class="cls-3" d="M55.93,30.24c-2.44-.29-2.79,1.25-1.39-2.54,1.7-4.6,10.42-24.58,25-26.07S123.91,8.9,136.18,26.8c3.34,3.33,10.28,14.61,13.83,29,1.93,6.81,3.3,27.05-1.94,32.83-3.36,18.51,5.15,35.7,5.15,45.78,0,8.71-5,21.93-5.73,28.67-1.41,6.74,4.43,28.45,2.92,35.38-1.92,13.64-8.76,17.84-21.1,27.2l-.39-11.44S121,220,105.75,221c-2.69-12.39-5.43-29.43,6.87-45.36,12-33-10.17-42.82-10.93-50.83,1-7.33,14.11-18.32,9.33-46.83A18.4,18.4,0,0,1,99.54,65.65C95.63,43.12,79.18,32.11,55.93,30.24Z"/><path class="cls-4" d="M31.63,134.65c-.77,1.16-1.36,2.94-1.08,3.47,3.06,4,12.4,16.06,11.73,31.38-.38,17.42-4.68,17.75-9.76,17.28.21.31.2,1.22.46,1.4,7.86-.67,9.43-3.1,10.21-18.64s-8.71-27.83-11.83-31.85a6.72,6.72,0,0,1,1.71-3.36,2.63,2.63,0,0,1,2-.79l.61,0a16.17,16.17,0,0,0-2.07-.69A4.51,4.51,0,0,0,31.63,134.65Z"/><path class="cls-4" d="M54,30.49l-.87-.23C55.06,23,65.19,3.73,77.39,1.13l.19.89C65.76,4.53,55.89,23.41,54,30.49Z"/><path class="cls-4" d="M113.23,175.84l.06-.13c8.8-24.14-.49-36-6.63-43.76-1.17-1.48-2.21-2.8-3-4a7.06,7.06,0,0,1-.91-5.41,20.8,20.8,0,0,1,1.71-4.59c.73-1.5.2-.4,1-2.22l-1.36,2.3c-.83,1.81-.33.28-1,1.13a10,10,0,0,0-1.35,3.64,6.9,6.9,0,0,0,.66,4.86,39.11,39.11,0,0,0,3.47,4.85c5.93,7.54,14.84,18.87,6.87,41.82a6.88,6.88,0,0,1-1,1.85c-7.18,9.79-8.77,20.14-8.5,28.93l1-1.2C104.23,195.24,105.93,185.29,113.23,175.84Z"/><path class="cls-4" d="M61.78,232.55l0-1.81c-.06-4.48-3.55-9.76-7.32-14.8-3.93-4.8-6.7-13.23-5.54-21.27-3.2,6.24-7.84,17.46-8.28,27.81l-.1,2.51-1.28-2.17c-.2-.34-.46-1.56-1.85-8.68-1.69-8.74-4.22-21.74-5.74-25.77-6.05,1.18-5.6,4-4.87,8.6.18,1.08.36,2.23.47,3.43.1,3.5-1,7-1.87,9.89-.35,1.12-.65,2.09-.81,2.87l-.32,1.48-1-1.15c-.05-.07-.18-.21-.36-.4-7.69-8.3-10.77-14.52-12-18.28C9,189,10.13,180,11.14,172a82.46,82.46,0,0,0,1-11.46c-.17-4.95-3-13.08-5.29-19.62-1.44-4.11-2.57-7.36-2.75-9-1.28-7.85-.39-13.39.46-18.76,1-6.34,2.06-12.89-.45-23.52-9.16-19.07-.69-36.79,3.37-45.31C8.11,43,8.66,41.9,9,41c7.09-28,33-43.57,67.71-40.41h0l.27,0,.14,0A18.67,18.67,0,0,1,79.71.15C94.52-1.34,125,8.06,137,25.64c3.65,3.62,10.48,15.18,13.94,29.21,2,7,3.28,27.16-2,33.34-2.07,11.66.65,22.93,2.84,32,1.26,5.25,2.35,9.77,2.35,13.47,0,5.28-1.8,12.16-3.39,18.23a82.15,82.15,0,0,0-2.34,10.51v.08c-.67,3.19.41,10.25,1.46,17.07,1.16,7.54,2.25,14.67,1.46,18.32-1.82,12.91-8.21,17.72-18.81,25.69l-3.71,2.8-.4-11.57c-2.71,1.64-10.24,5.44-22.42,6.26l-.64,0-.14-.63a97.79,97.79,0,0,1-2.17-14.11l-1,1.1c-4.58,4.87-12.24,13-9.13,20.81L94,230.92l-2.23-1.83c-4.27-3.5-5.5-9.72-3.38-17.08,5.05-14.69,1.49-19-.44-20.81-2.1,3.24-5.39,11.14-5.19,17.08l.21,6.09-1.66-5.86c-1.46-5.17-5.5-10.5-8.41-14.07l-.72-1a7.45,7.45,0,0,1-1.76-3.5c-1.6,1.66-3.68,4.42-4.16,10.27a68.33,68.33,0,0,0,.24,10.63,45.57,45.57,0,0,1,0,10.57c-.27,1.71-1.3,7.51-3.49,9.81Zm-8.15-47.47-1.93,4.76c-4,9.95.25,20.73,3.9,25.19,3.38,4.51,6.53,9.22,7.4,13.57a29.22,29.22,0,0,0,2-7.41c.51-3,.24-6.49,0-10.22a68.66,68.66,0,0,1-.23-10.86c.6-7.35,3.56-10.22,5.33-11.94l1.57-1.57,0,1.72a6,6,0,0,0,1.62,4.25l.72,1a54.85,54.85,0,0,1,7.41,11.22c.84-6.1,3.91-12.73,5.75-15.14l.51-.67.91.88c2,1.87,6.77,6.27,1.14,22.62-.77,2.71-2,8.91,1,13.4C89.88,218.22,96.7,211,101,206.41c.85-.9,1.61-1.71,2.19-2.39l1.24-1.46.07,1.91a87.12,87.12,0,0,0,2.1,15c14.4-1.1,22.06-6.6,22.14-6.66l1.13-.83.4,11.43,1.43-1.09c10.64-8,16.5-12.41,18.24-24.76.74-3.44-.38-10.76-1.47-17.83-1.11-7.25-2.16-14.1-1.45-17.57a86.12,86.12,0,0,1,2.37-10.7c1.57-6,3.35-12.76,3.35-17.85,0-3.52-1.07-8-2.32-13.12-2.23-9.24-5-20.76-2.81-32.8l0-.21.14-.15c5-5.51,3.66-25.51,1.78-32.13-3.37-13.63-10.13-25.14-13.64-28.64C124,9.33,94.36.14,79.86,1.63q-.35,0-.69.09l-1.1.22h0l-.7.14h0l-.07-.33,0,.33-.7.07,0-.12c-33.87-3.08-59.2,12-66.12,39.4-.42,1-1,2.21-1.63,3.57C4.54,54-3.42,70.61,5.5,89.19,8.12,100.26,7.05,107,6,113.43c-.88,5.49-1.71,10.68-.46,18.33a60.75,60.75,0,0,0,2.68,8.67c2.31,6.63,5.19,14.88,5.37,20.06a82.07,82.07,0,0,1-1,11.7c-1,7.79-2.12,16.63-.3,22.16,1.16,3.53,4,9.34,11.14,17.15.15-.51.32-1.06.5-1.65.85-2.74,1.9-6.16,1.81-9.36-.11-1.12-.28-2.23-.45-3.29-.74-4.63-1.44-9,6.4-10.37l.51,0,.55.44c1.56,3.42,4.28,17.38,6.07,26.61.26,1.35.52,2.66.75,3.84,2-13.28,9.26-26.59,10.84-28.59Z"/></g><path class="cls-5" d="M22,133.28a6.13,6.13,0,0,0-1.63.59l-.17.09-.1,0-.61,0h-.22l-1.86,2.88,1.93-.16Z"/><polygon class="cls-5" points="22.03 137.44 20.42 137.57 18.01 140.29 20.06 140.29 22.03 137.44"/><path class="cls-6" d="M28.59,128.91a3.47,3.47,0,0,0-3,0,11.41,11.41,0,0,0-4.4,3.62,7.46,7.46,0,0,1,1.85-.32l.95,0-3.42,4.44,3.36-.28-3.35,4.85h-3v12.16l2-1.71.59-.69c8.32-9.82,11.44-16.93,9.29-21.16A2.18,2.18,0,0,0,28.59,128.91Z"/><path class="cls-5" d="M24.29,128.52c-3.1-.05-5.1.43-7.41,4.66l2.89-.08A11.68,11.68,0,0,1,24.29,128.52Z"/><path class="cls-7" d="M22.33,144c0,1.34.44,2.52.1,3.81-.12.49-1,2.71-1.45,2.88s-.66-1.54-1-1.86.1-1.57-.08-2c-.34-.76-1.46.2-1.79-.56a15.51,15.51,0,0,1-.61-3.19,5.07,5.07,0,0,1,.19-2.22A5.31,5.31,0,0,0,22,138.72a1.82,1.82,0,0,0,.36-.83.75.75,0,0,0-.4-.75c-.46-.18-1,.27-1.45,0a.64.64,0,0,1-.22-.68,2,2,0,0,1,.34-.68l1.82-2.61a1.75,1.75,0,0,0-1.67-.37,11.26,11.26,0,0,1,2.29-2.94,6,6,0,0,1,4-1.79,3.3,3.3,0,0,1,3,1.95c.26.68-.42.86-.9,1.21a17.15,17.15,0,0,0-6,8.22A14.86,14.86,0,0,0,22.33,144Z"/><polygon class="cls-4" points="19.22 137.67 19.09 137.69 19.09 137.69 19.22 137.67"/><path class="cls-4" d="M30.23,129.39a2.93,2.93,0,0,0-1.2-1.28,3.76,3.76,0,0,0-1.9-.45H25.75c-4.21-.15-7-.25-10,5.81l-.35.69,2.76-.08L15.58,138l3.48-.29h0l-2.34,2.61-.09.1v15l3.51-3,.06-.06c.12-.16.33-.4.6-.71C29.41,141.44,32.57,134,30.23,129.39Zm-13.35,3.79c2.31-4.23,4.31-4.71,7.41-4.66a11.68,11.68,0,0,0-4.52,4.58Zm.49,3.73L19.23,134h.22l.61,0,.1,0,.17-.09a6.13,6.13,0,0,1,1.63-.59l-2.66,3.47Zm3.05.66,1.61-.13-2,2.85H18Zm-2.84,15.8V141.21h2.26V151.3l-.3.36Zm3.18-3.17v-9.31l3.13-4.53-3.36.28L24,132.2l-.95,0a7.46,7.46,0,0,0-1.85.32,11.41,11.41,0,0,1,4.4-3.62,3.47,3.47,0,0,1,3,0,2.18,2.18,0,0,1,.83.9C31.51,133.93,28.59,140.79,20.76,150.2Z"/><path class="cls-4" d="M25.08,128.12l-.76-.15c.47-2.45,2.92-19.91-.22-25.06l.66-.41C28.35,108.39,25.12,127.93,25.08,128.12Z"/><g id="Face"><path id="Skin" class="cls-8" d="M61,137.6l15.3-1.89,5.34-1.63,5.16-2,4.58-2.21L99,124.39l1.87-2.06s4.1-5,4.27-5.16,2.93-5.18,2.93-5.18,1.53-4.41,1.6-4.43,3-.36,3-.36l5.92-1.15,6.54-4.1,1-1.71,2.77-5.14.35-5.43-.84-5-2.11-3.55-3.93-2.68-6.76-1.2-4.13,1-2-1.13L104,73.27l-2.73-4-1.37-4.48-1.13-4.92-2.25-6.07-3-5L89.81,44,84.23,39.1,72.14,32.8l-9.76-2s-6.28-.76-6.35-.74-6.88.6-6.88.6-5.08,1.13-5.16,1.2-5.58,2.2-5.58,2.2L35,36.2l-4.7,4.73-2.94,4.14-3.53,7-.53,3.09L28.38,73,18.24,84.42l-2.87,5.4-1.71,6.24s-.4,6-.4,6.07.44,5.15.44,5.15l1.44,6.07,3.2,6.43,7.26,8.47,5.75,3.48,6.52,2.47,11.73,2.62,8,.78Z"/><path id="Outline" class="cls-4" d="M129.37,87.89c-.6-5.9-4.34-9.84-10.24-10.83a18.32,18.32,0,0,0-7.51.39,5.65,5.65,0,0,0-1.36-.7,15.66,15.66,0,0,1-9.54-9.84l-.07-.45c-1.86-12.52-10-34-43.83-36.88h-.1c-26.23,0-32.64,19.16-34,25.44l-.06.32c.34-.17.68-.33,1-.47,1.51-6.44,8-24.38,33-24.38h.09c33.13,2.86,41.14,23.85,43,36.11l.1.54A16.53,16.53,0,0,0,109.91,77.6l.52.22c-2.18.78-3.89,2-4.54,3.39l.84.39c.54-1.18,2.16-2.28,4.3-3,.28-.09.58-.17.88-.25A17,17,0,0,1,119,78c3.21.53,8.71,2.54,9.47,10,.57,7.74-2.11,13.47-7.73,16.58A21.17,21.17,0,0,1,110.48,107c-.34,0-.66,0-1,0a5.5,5.5,0,0,1-2.25-.47l-.55.75a5.91,5.91,0,0,0,2.5.64,38.81,38.81,0,0,1-8.49,14C88.16,135.12,67.31,138.12,52,136.52c-21.16-2.86-30.7-9.09-36.43-23.81-4.68-14.49.36-24.45,3.86-29.17L18.73,83l-.2.24c-3.6,4.93-8.6,15.12-3.85,29.83,5.89,15.11,15.62,21.5,37.2,24.41a73.57,73.57,0,0,0,7.73.4c14.29,0,31-4,41.78-15.3a39.55,39.55,0,0,0,8.78-14.62l.61,0a22.18,22.18,0,0,0,10.38-2.57C125.32,103.06,130.12,98.16,129.37,87.89Z"/></g><g id="Eyebrows"><path class="cls-4" d="M73.82,48.62C68.5,42.5,61.3,44.21,56.75,47.54l-.54-.74c4.86-3.56,12.57-5.37,18.31,1.22Z"/><path class="cls-4" d="M22.12,46.87l-.66-.63c6-6.34,13.64-4.19,18.34-.42l-.58.71C34.83,43,27.71,41,22.12,46.87Z"/></g><g id="_1" data-name="1"><g id="eye_base" data-name="eye base"><circle class="cls-9" cx="60.43" cy="73.7" r="18.41"/><path class="cls-10" d="M24.47,86a18,18,0,0,1-2.07-.85A16.34,16.34,0,0,0,24.47,86Z"/><path class="cls-10" d="M17.84,81.86a16.86,16.86,0,0,0,1.39,1.28c.14.12.3.21.45.32A16.48,16.48,0,0,1,17.84,81.86Z"/><path class="cls-10" d="M40,83.12c-.19.16-.4.3-.6.45C39.64,83.42,39.85,83.28,40,83.12Z"/><path class="cls-10" d="M28.43,86.81h0s0,0,0-.06a16.1,16.1,0,0,1-3.55-.63A15.7,15.7,0,0,0,28.43,86.81Z"/><path class="cls-10" d="M21.67,84.77c-.32-.18-.62-.37-.92-.56C21.05,84.4,21.35,84.59,21.67,84.77Z"/><path class="cls-10" d="M38.37,84.33h0a3.46,3.46,0,0,0,.31-.22c-.11.08-.24.14-.36.22Z"/><path class="cls-9" d="M38.32,84.33c.12-.08.25-.14.36-.22s.51-.35.76-.54.41-.29.6-.45a14.77,14.77,0,0,0,1.32-1.19A16.56,16.56,0,0,0,42.93,80a17.82,17.82,0,0,1-.64-10.6,18.29,18.29,0,0,1,2.32-5.68,16.45,16.45,0,0,0-15-9.73h-.19a16.21,16.21,0,0,0-6.35,1.37,16.5,16.5,0,0,0-9.41,11.21,16.24,16.24,0,0,0,4.17,15.25,16.48,16.48,0,0,0,1.84,1.6c.35.26.7.51,1.07.75s.6.38.92.56.48.24.73.36a18,18,0,0,0,2.07.85l.45.14a16.1,16.1,0,0,0,3.55.63C30,84.34,33.61,83.43,38.32,84.33Z"/><path class="cls-9" d="M44.61,63.76h0c.07.17.14.35.22.53C44.75,64.11,44.68,63.94,44.61,63.76Z"/><path class="cls-10" d="M28.24,87.11s-.07.09-.1.15h0C28.17,87.2,28.21,87.16,28.24,87.11Z"/><path class="cls-9" d="M43.26,79.59l-.33.45h0Z"/><path class="cls-4" d="M24.92,86.12,24.47,86Z"/><path class="cls-4" d="M13.67,66.61A16.5,16.5,0,0,1,23.08,55.4,16.21,16.21,0,0,1,29.43,54h.19a16.45,16.45,0,0,1,15,9.73h0c.07.18.14.35.22.53l.13-.23a16.54,16.54,0,1,0-27.12,17.8,16.24,16.24,0,0,1-4.17-15.25Z"/><path class="cls-4" d="M39.44,83.57c-.25.19-.5.37-.76.54C38.94,83.94,39.19,83.76,39.44,83.57Z"/><path class="cls-4" d="M22.4,85.13c-.25-.12-.5-.23-.73-.36C21.91,84.9,22.15,85,22.4,85.13Z"/><path class="cls-4" d="M20.75,84.21c-.37-.24-.72-.49-1.07-.75C20,83.72,20.38,84,20.75,84.21Z"/><path class="cls-4" d="M42.93,80h0a16.56,16.56,0,0,1-1.57,1.89A14.77,14.77,0,0,1,40,83.12a16.47,16.47,0,0,0,3.23-3.49v0Z"/><path class="cls-4" d="M78.94,72.88A18.56,18.56,0,0,0,60.38,55h-.21a18.49,18.49,0,0,0-13.1,5.59,20,20,0,0,0-2.18,2.7,16.89,16.89,0,0,0-15.27-9.74h-.19a17,17,0,0,0-6.23,1.27c-.35.15-.7.31-1,.48l-.3.15a17,17,0,0,0-8.67,11.16,16.61,16.61,0,0,0-.45,4,16.81,16.81,0,0,0,5.41,12.18l.11.1c.23.21.46.4.69.59a16.78,16.78,0,0,0,9.19,3.75c0-.06.07-.1.1-.15s-.07.09-.1.15h0a5.1,5.1,0,0,0,1.48,6,5.77,5.77,0,0,0,3.71,1.28,11.78,11.78,0,0,0,6.87-2.75l-.27-.36c-3.85,2.9-7.6,3.46-10,1.48a4.62,4.62,0,0,1-1.35-5.5c0-.07.08-.11.11-.18a4.08,4.08,0,0,1,.28-.44h0l.05-.06c1.46-2,4.61-2.76,8.72-2.09h.05c.23,0,.46.06.69.11l.15-.09a16.78,16.78,0,0,0,3.08-2.47,16.38,16.38,0,0,0,1.43-1.69A18.58,18.58,0,0,0,60.37,92.22h.21A18.59,18.59,0,0,0,79,73.41C79,73.23,79,73.06,78.94,72.88ZM60.58,91.76h-.21A18.15,18.15,0,0,1,43.45,80.1l-.18-.47A16.47,16.47,0,0,1,40,83.12c-.19.16-.4.3-.6.45s-.5.37-.76.54a3.46,3.46,0,0,1-.31.22h0c-4.71-.9-8.3,0-9.85,2.42,0,0,0,0,0,.06h0a15.7,15.7,0,0,1-3.51-.69L24.47,86a16.34,16.34,0,0,1-2.07-.85c-.25-.12-.49-.23-.73-.36s-.62-.37-.92-.56-.72-.49-1.07-.75c-.15-.11-.31-.2-.45-.32a16.86,16.86,0,0,1-1.39-1.28A16.54,16.54,0,1,1,45,64.06l.16-.28h0a18.75,18.75,0,0,1,2.28-2.85,18,18,0,0,1,12.77-5.45h.21A18.11,18.11,0,0,1,78.49,73c0,.14,0,.27,0,.4A18.15,18.15,0,0,1,60.58,91.76Z"/><path class="cls-4" d="M42.29,69.44A17.82,17.82,0,0,0,42.93,80l.33-.45a17.46,17.46,0,0,1-.52-10.1,18.06,18.06,0,0,1,2.09-5.2c-.08-.18-.15-.36-.22-.53A18.29,18.29,0,0,0,42.29,69.44Z"/></g><circle class="cls-4" cx="45.53" cy="71.3" r="3.51"/><circle class="cls-4" cx="16.36" cy="70.57" r="3.51"/><path class="cls-9" d="M32,100.68c-3.66,1.23-5.82,3.28-6.42,6.07A5,5,0,0,0,27,110.89c1.26,1.3,3.38,2.21,6.25,2.76L35,100A21.86,21.86,0,0,0,32,100.68Z"/><path class="cls-9" d="M35.41,99.87l-1.72,13.87a52.71,52.71,0,0,0,11.47.4L47,99.59A46.69,46.69,0,0,0,35.41,99.87Z"/><path class="cls-9" d="M47.4,99.63l-1.79,14.49,1.26-.07a77.74,77.74,0,0,1,10.16.57l1.56-13.06A70.53,70.53,0,0,0,47.4,99.63Z"/><path class="cls-9" d="M66.73,104.84c-1.33-1.08-4.14-2.21-7.71-3.18l-1.55,13c3.76.39,7.61.89,10.4,1.27a17,17,0,0,1-1.7-7A13.44,13.44,0,0,1,66.73,104.84Z"/><path class="cls-4" d="M66.62,108.94a11.9,11.9,0,0,1,3.9-9.25.22.22,0,0,0,0-.31.22.22,0,0,0-.32,0,12,12,0,0,0-3.34,5c-4.7-3.62-24.39-7.73-35-4.15-3.82,1.29-6.08,3.44-6.72,6.42a5.41,5.41,0,0,0,1.51,4.52c2.86,3,9.67,4.06,20.22,3.29,4.62-.23,15.11,1.08,20.95,1.89l.28,0a16.08,16.08,0,0,0,3.77,4.89.3.3,0,0,0,.15,0,.25.25,0,0,0,.17-.08.21.21,0,0,0,0-.31A16.7,16.7,0,0,1,66.62,108.94Zm-39.62,2a5,5,0,0,1-1.39-4.14c.6-2.79,2.76-4.84,6.42-6.07A21.86,21.86,0,0,1,35,100l-1.7,13.7C30.38,113.1,28.26,112.19,27,110.89Zm6.69,2.85,1.72-13.87A46.69,46.69,0,0,1,47,99.59l-1.79,14.55A52.71,52.71,0,0,1,33.69,113.74Zm13.18.31-1.26.07L47.4,99.63a70.53,70.53,0,0,1,11.19,1.93L57,114.62A77.74,77.74,0,0,0,46.87,114.05Zm10.6.61,1.55-13c3.57,1,6.38,2.1,7.71,3.18a13.44,13.44,0,0,0-.56,4.11,17,17,0,0,0,1.7,7C65.08,115.55,61.23,115.05,57.47,114.66Z"/></g><path class="cls-5" d="M107.88,135.29a6.5,6.5,0,0,0-1.63.59l-.17.09-.1.05-.61,0h-.22l-1.86,2.87,1.93-.16Z"/><polygon class="cls-5" points="107.95 139.45 106.34 139.59 103.93 142.3 105.98 142.3 107.95 139.45"/><path class="cls-6" d="M114.51,130.92a3.47,3.47,0,0,0-3,0,11.5,11.5,0,0,0-4.4,3.62,7.46,7.46,0,0,1,1.85-.32l1,0-3.42,4.45,3.36-.28-3.35,4.84h-3v12.16l2-1.7.59-.7c8.32-9.81,11.44-16.93,9.29-21.16A2.18,2.18,0,0,0,114.51,130.92Z"/><path class="cls-5" d="M110.21,130.53c-3.1,0-5.1.43-7.41,4.66l2.89-.08A11.68,11.68,0,0,1,110.21,130.53Z"/><path class="cls-7" d="M108.25,146c0,1.34.44,2.51.1,3.8-.12.5-1,2.71-1.45,2.88s-.66-1.54-1-1.86.1-1.56-.08-2c-.34-.76-1.46.2-1.79-.56a15.29,15.29,0,0,1-.61-3.18,5.1,5.1,0,0,1,.19-2.23,5.31,5.31,0,0,0,4.32-2.17,1.83,1.83,0,0,0,.36-.82.76.76,0,0,0-.4-.76c-.46-.18-1,.27-1.45,0a.64.64,0,0,1-.22-.68,2,2,0,0,1,.34-.68l1.82-2.61a1.78,1.78,0,0,0-1.67-.37,11.05,11.05,0,0,1,2.29-2.93,5.93,5.93,0,0,1,4-1.79,3.3,3.3,0,0,1,3,1.94c.26.68-.42.86-.9,1.21a17,17,0,0,0-1.59,1.33,17.14,17.14,0,0,0-4.44,6.89A14.87,14.87,0,0,0,108.25,146Z"/><polygon class="cls-4" points="105.14 139.69 105.01 139.7 105.01 139.7 105.14 139.69"/><path class="cls-4" d="M116.15,131.41a3,3,0,0,0-1.2-1.29,3.76,3.76,0,0,0-1.9-.45h-1.38c-4.21-.15-7-.25-10,5.82l-.35.68,2.76-.07L101.5,140l3.48-.29h0l-2.34,2.6-.09.1v15l3.51-3,.06-.06.6-.71C115.33,143.45,118.49,136,116.15,131.41Zm-13.35,3.78c2.31-4.23,4.31-4.7,7.41-4.66a11.68,11.68,0,0,0-4.52,4.58Zm.49,3.73,1.86-2.87h.22l.61,0,.1-.05.17-.09a6.5,6.5,0,0,1,1.63-.59l-2.66,3.47Zm3,.67,1.61-.14-2,2.85h-2Zm-2.84,15.79V143.22h2.26v10.1c-.12.14-.23.26-.3.36Zm3.18-3.16V142.9l3.13-4.52-3.36.28,3.42-4.45-1,0a7.46,7.46,0,0,0-1.85.32,11.5,11.5,0,0,1,4.4-3.62,3.47,3.47,0,0,1,3,0,2.18,2.18,0,0,1,.83.9C117.43,135.94,114.51,142.8,106.68,152.22Z"/><path class="cls-4" d="M111,130.13l-.76-.15c.47-2.45,2.92-19.91-.22-25.06l.66-.4C114.27,110.4,111,129.94,111,130.13Z"/></g></g></g></svg>