<svg xmlns="http://www.w3.org/2000/svg" viewBox="0 0 154.18 232.55"><defs><style>.cls-1{fill:#332f2d;}.cls-2{fill:#3d3634;}.cls-3{fill:#2b2522;}.cls-4{fill:#100;}.cls-5,.cls-8{fill:#cde69c;}.cls-5{stroke:#100;stroke-linecap:square;stroke-linejoin:round;stroke-width:0.15px;}.cls-6{fill:#93b06b;}.cls-7{fill:none;}.cls-9{fill:#eeffdb;}.cls-10{fill:#e6f0cd;}.cls-11{fill:#fed1b1;}.cls-12{fill:#efe4e4;}.cls-13{fill:#804352;}.cls-14{fill:#e87771;}</style></defs><g id="Layer_2" data-name="Layer 2"><g id="final_result" data-name="final result"><g id="Rohan"><g id="Hair"><path class="cls-1" d="M104.06,118c.43,3.89,12.46,19.55,13.38,36.07.38,6.24-1.53,20.66-3.67,22.23-1.18.71-10.67,12.84-9.53,28-2.82,4.06-16.39,14.54-12.23,25-4.6-3.76-4.85-10.35-3.14-16.3,5.82-16.91.32-20.58-1.27-22.15-2.08,2.72-6.2,6.21-5.58,17.71-2-10.18-6-10.41-8.78-13.8-1.46-2.06-2.38-2.69-2.47-5.64-1.62,1.62-4.85,4.22-5.48,11.84s1.27,15.3.27,21.13c-.43,2.79-1.5,7.55-3.29,9.42-.06-4.71-3.71-10.2-7.46-15.23-4.29-5.24-7.9-16.35-4-25.93-1.65,2.07-10.53,18.29-11.14,32.88-.53-.9-5.92-32.43-8.07-35.44,3.7.44,8.65-2.52,9.08-11.87.27-3.93,2.93-17.59-4.35-28.41-1.35-1.85-3.77-7.39-5.82-9.83-.1-.56,1.88-5.38,4.46-4.73,3.89,1.36,12.82,4.38,22.29,4.26C71,137.39,82.33,134,85,132.67,91.92,129.81,102.26,122.06,104.06,118Z"/><path class="cls-2" d="M4.6,132.61c.45,4,7.76,20.48,8.05,28.64s-4.2,25.13-1.27,34.06S23,213,23.61,213.74c.59-2.78,2.81-7.85,2.67-12.54-.59-6.46-3.38-11.4,5.34-12.9,7.67-.52,10-2.46,10.84-18.84.67-15.32-8.46-27.32-11.83-31.68-.14-.28,1.07-5,4.2-4.76-.47-.4-8.77-3.77-10-5.83-.27-.45-1.14-.9-1.46-1.31-2-2.53-5-5.83-5.22-6.75S16.47,116,16,114.4c-.63-1.59-2.67-7.7-2.54-9.09-.21-1.57-.48-6.32-.1-7.3.12-3,1.74-7.8,3.13-10.53.39-.69.79-1.77.79-1.6S19,83.25,19,83.25a24.07,24.07,0,0,1-5.58-13.52c-.22-2.94,1-6.62,5.48-11.55.89-1,3.61-2.25,4.17-3A30.77,30.77,0,0,1,51.16,30.7c2.18-.46,2.38.4,3.14-1.61,8.25-18.22,16.15-25.37,22.78-27C39-1.62,15.89,16.72,9.49,42,6.67,49-5.86,68.43,4.6,90.25,9.26,110,1.83,115.58,4.6,132.61Z"/><path class="cls-3" d="M55.93,30.24c-2.44-.29-2.79,1.25-1.39-2.54,1.7-4.6,10.42-24.58,25-26.07S123.91,8.9,136.18,26.8c3.34,3.33,10.28,14.61,13.83,29,1.93,6.81,3.3,27.05-1.94,32.83-3.36,18.51,5.15,35.7,5.15,45.78,0,8.71-5,21.93-5.73,28.67-1.41,6.74,4.43,28.45,2.92,35.38-1.92,13.64-8.76,17.84-21.1,27.2l-.39-11.44S121,220,105.75,221c-2.69-12.39-5.43-29.43,6.87-45.36,12-33-10.17-42.82-10.93-50.83,1-7.33,14.11-18.32,9.33-46.83A18.4,18.4,0,0,1,99.54,65.65C95.63,43.12,79.18,32.11,55.93,30.24Z"/><path class="cls-4" d="M31.63,134.65c-.77,1.16-1.36,2.94-1.08,3.47,3.06,4,12.4,16.06,11.73,31.38-.38,17.42-4.68,17.75-9.76,17.28.21.31.2,1.22.46,1.4,7.86-.67,9.43-3.1,10.21-18.64s-8.71-27.83-11.83-31.85a6.72,6.72,0,0,1,1.71-3.36,2.63,2.63,0,0,1,2-.79l.61,0a16.17,16.17,0,0,0-2.07-.69A4.51,4.51,0,0,0,31.63,134.65Z"/><path class="cls-4" d="M54,30.49l-.87-.23C55.06,23,65.19,3.73,77.39,1.13l.19.89C65.76,4.53,55.89,23.41,54,30.49Z"/><path class="cls-4" d="M113.23,175.84l.06-.13c8.8-24.14-.49-36-6.63-43.76-1.17-1.48-2.21-2.8-3-4a7.06,7.06,0,0,1-.91-5.41,20.8,20.8,0,0,1,1.71-4.59c.73-1.5.2-.4,1-2.22l-1.36,2.3c-.83,1.81-.33.28-1,1.13a10,10,0,0,0-1.35,3.64,6.9,6.9,0,0,0,.66,4.86,39.11,39.11,0,0,0,3.47,4.85c5.93,7.54,14.84,18.87,6.87,41.82a6.88,6.88,0,0,1-1,1.85c-7.18,9.79-8.77,20.14-8.5,28.93l1-1.2C104.23,195.24,105.93,185.29,113.23,175.84Z"/><path class="cls-4" d="M61.78,232.55l0-1.81c-.06-4.48-3.55-9.76-7.32-14.8-3.93-4.8-6.7-13.23-5.54-21.27-3.2,6.24-7.84,17.46-8.28,27.81l-.1,2.51-1.28-2.17c-.2-.34-.46-1.56-1.85-8.68-1.69-8.74-4.22-21.74-5.74-25.77-6.05,1.18-5.6,4-4.87,8.6.18,1.08.36,2.23.47,3.43.1,3.5-1,7-1.87,9.89-.35,1.12-.65,2.09-.81,2.87l-.32,1.48-1-1.15c-.05-.07-.18-.21-.36-.4-7.69-8.3-10.77-14.52-12-18.28C9,189,10.13,180,11.14,172a82.46,82.46,0,0,0,1-11.46c-.17-4.95-3-13.08-5.29-19.62-1.44-4.11-2.57-7.36-2.75-9-1.28-7.85-.39-13.39.46-18.76,1-6.34,2.06-12.89-.45-23.52-9.16-19.07-.69-36.79,3.37-45.31C8.11,43,8.66,41.9,9,41c7.09-28,33-43.57,67.71-40.41h0l.27,0,.14,0A18.67,18.67,0,0,1,79.71.15C94.52-1.34,125,8.06,137,25.64c3.65,3.62,10.48,15.18,13.94,29.21,2,7,3.28,27.16-2,33.34-2.07,11.66.65,22.93,2.84,32,1.26,5.25,2.35,9.77,2.35,13.47,0,5.28-1.8,12.16-3.39,18.23a82.15,82.15,0,0,0-2.34,10.51v.08c-.67,3.19.41,10.25,1.46,17.07,1.16,7.54,2.25,14.67,1.46,18.32-1.82,12.91-8.21,17.72-18.81,25.69l-3.71,2.8-.4-11.57c-2.71,1.64-10.24,5.44-22.42,6.26l-.64,0-.14-.63a97.79,97.79,0,0,1-2.17-14.11l-1,1.1c-4.58,4.87-12.24,13-9.13,20.81L94,230.92l-2.23-1.83c-4.27-3.5-5.5-9.72-3.38-17.08,5.05-14.69,1.49-19-.44-20.81-2.1,3.24-5.39,11.14-5.19,17.08l.21,6.09-1.66-5.86c-1.46-5.17-5.5-10.5-8.41-14.07l-.72-1a7.45,7.45,0,0,1-1.76-3.5c-1.6,1.66-3.68,4.42-4.16,10.27a68.33,68.33,0,0,0,.24,10.63,45.57,45.57,0,0,1,0,10.57c-.27,1.71-1.3,7.51-3.49,9.81Zm-8.15-47.47-1.93,4.76c-4,9.95.25,20.73,3.9,25.19,3.38,4.51,6.53,9.22,7.4,13.57a29.22,29.22,0,0,0,2-7.41c.51-3,.24-6.49,0-10.22a68.66,68.66,0,0,1-.23-10.86c.6-7.35,3.56-10.22,5.33-11.94l1.57-1.57,0,1.72a6,6,0,0,0,1.62,4.25l.72,1a54.85,54.85,0,0,1,7.41,11.22c.84-6.1,3.91-12.73,5.75-15.14l.51-.67.91.88c2,1.87,6.77,6.27,1.14,22.62-.77,2.71-2,8.91,1,13.4C89.88,218.22,96.7,211,101,206.41c.85-.9,1.61-1.71,2.19-2.39l1.24-1.46.07,1.91a87.12,87.12,0,0,0,2.1,15c14.4-1.1,22.06-6.6,22.14-6.66l1.13-.83.4,11.43,1.43-1.09c10.64-8,16.5-12.41,18.24-24.76.74-3.44-.38-10.76-1.47-17.83-1.11-7.25-2.16-14.1-1.45-17.57a86.12,86.12,0,0,1,2.37-10.7c1.57-6,3.35-12.76,3.35-17.85,0-3.52-1.07-8-2.32-13.12-2.23-9.24-5-20.76-2.81-32.8l0-.21.14-.15c5-5.51,3.66-25.51,1.78-32.13-3.37-13.63-10.13-25.14-13.64-28.64C124,9.33,94.36.14,79.86,1.63q-.35,0-.69.09l-1.1.22h0l-.7.14h0l-.07-.33,0,.33-.7.07,0-.12c-33.87-3.08-59.2,12-66.12,39.4-.42,1-1,2.21-1.63,3.57C4.54,54-3.42,70.61,5.5,89.19,8.12,100.26,7.05,107,6,113.43c-.88,5.49-1.71,10.68-.46,18.33a60.75,60.75,0,0,0,2.68,8.67c2.31,6.63,5.19,14.88,5.37,20.06a82.07,82.07,0,0,1-1,11.7c-1,7.79-2.12,16.63-.3,22.16,1.16,3.53,4,9.34,11.14,17.15.15-.51.32-1.06.5-1.65.85-2.74,1.9-6.16,1.81-9.36-.11-1.12-.28-2.23-.45-3.29-.74-4.63-1.44-9,6.4-10.37l.51,0,.55.44c1.56,3.42,4.28,17.38,6.07,26.61.26,1.35.52,2.66.75,3.84,2-13.28,9.26-26.59,10.84-28.59Z"/></g><g id="Rohan-2" data-name="Rohan"><path class="cls-5" d="M21.47,122.73l-.73-.15c0-.11,2.21-10.92.83-17.77l.73-.14C23.71,111.66,21.56,122.28,21.47,122.73Z"/><path class="cls-6" d="M17.92,127.08a3.59,3.59,0,0,1,1.35-.18h0l0-1.84h.31c0-.46.05-.93.08-1.4a1.71,1.71,0,0,0-.11-1,5.64,5.64,0,0,0-1.58.6C18,123.76,18,125.35,17.92,127.08Z"/><path class="cls-7" d="M19.52,127.18l-.09,1.63,0,.67h.35l.08-4.42h-.21v.25Z"/><path class="cls-6" d="M19.4,129.48h-.17l0-1.88a2.67,2.67,0,0,0-1.38.26c-.08,2.23-.17,4.47-.18,4.8s.81,1.53,1.39,2.9l.18-3.7Z"/><path class="cls-8" d="M21.62,135.61l1.47-2.53a2.78,2.78,0,0,0,.54-1.57c0-.43-.27-.83-.31-1.26a.51.51,0,0,1,.17-.48.28.28,0,0,1,.36.1c0-.51,0-1.05,0-1.59a2.15,2.15,0,0,0-1.1-.56h-.05l0,1.73h-.52l.1-4.43h.52l0,2h0a4.06,4.06,0,0,1,1.12.39c0-1.85,0-3.54,0-3.85a5.47,5.47,0,0,0-4.21-.9,1.71,1.71,0,0,1,.11,1c0,.47-.05.94-.08,1.4h.21l-.08,4.42H19.4l-.12,2.37-.18,3.7a12.73,12.73,0,0,1,.75,2.16l.35-5.35h0a1,1,0,1,1,1.46-.93,1,1,0,0,1-.5.9l-.05,2.82.1,0C21.43,135.16,21.55,135.4,21.62,135.61Z"/><path class="cls-9" d="M21.68,125.63a1.08,1.08,0,0,0-.28.6,3.27,3.27,0,0,0-.11.88c0,.57.4,1.12.26,1.68-.06.25-.22.54-.07.75s.5.16.67,0a1.25,1.25,0,0,0,.2-.74l.13-1.87a2.43,2.43,0,0,0-.1-1.17A.45.45,0,0,0,21.68,125.63Z"/><path class="cls-10" d="M23.89,132.68c0-.34,0-1.46,0-2.81a.28.28,0,0,0-.36-.1.51.51,0,0,0-.17.48c0,.43.28.83.31,1.26a2.78,2.78,0,0,1-.54,1.57l-1.47,2.53c-.07-.21-.19-.45-.41-.48l-.1,0,0,2.51A19.8,19.8,0,0,1,23.89,132.68Z"/><path class="cls-4" d="M17.85,123.1l-.06,0v.06c0,.43,0,2.13-.1,4,0,.13,0,.26,0,.4v.09c0,.08,0,.17,0,.26-.08,2.35-.18,4.7-.18,4.75v.05A26,26,0,0,1,19.69,138a1.6,1.6,0,0,1,0,.3v.07l.08,0a1.94,1.94,0,0,0,.62.07,2.75,2.75,0,0,0,.62-.1l.06,0v-.06a1.1,1.1,0,0,1,0-.15,18.06,18.06,0,0,1,2.92-5.32l0,0v0c0-.38,0-2.42-.05-4.48v-.68c0-2.08,0-4,0-4v0l0,0A5.61,5.61,0,0,0,17.85,123.1Zm6,4.3a4.06,4.06,0,0,0-1.12-.39h0l0-2h-.52l-.1,4.43h.52l0-1.73h.05a2.15,2.15,0,0,1,1.1.56c0,2,0,3.94.06,4.4a19.8,19.8,0,0,0-2.82,5l.09-5.33a1,1,0,0,0,.5-.9,1,1,0,1,0-1.46.93h0l-.35,5.35a26.45,26.45,0,0,0-2.14-5.06c0-.33.1-2.57.18-4.8a2.67,2.67,0,0,1,1.38-.26l0,1.88h.52l.08-4.42h-.52l0,1.84h0a3.59,3.59,0,0,0-1.35.18c0-1.73.1-3.32.09-3.83a5.38,5.38,0,0,1,5.79.3C23.8,123.86,23.81,125.55,23.83,127.4Z"/></g><g id="Face"><path id="Skin" class="cls-11" d="M61,137.6l15.3-1.89,5.34-1.63,5.16-2,4.58-2.21L99,124.39l1.87-2.06s4.1-5,4.27-5.16,2.93-5.18,2.93-5.18,1.53-4.41,1.6-4.43,3-.36,3-.36l5.92-1.15,6.54-4.1,1-1.71,2.77-5.14.35-5.43-.84-5-2.11-3.55-3.93-2.68-6.76-1.2-4.13,1-2-1.13L104,73.27l-2.73-4-1.37-4.48-1.13-4.92-2.25-6.07-3-5L89.81,44,84.23,39.1,72.14,32.8l-9.76-2s-6.28-.76-6.35-.74-6.88.6-6.88.6-5.08,1.13-5.16,1.2-5.58,2.2-5.58,2.2L35,36.2l-4.7,4.73-2.94,4.14-3.53,7-.53,3.09L28.38,73,18.24,84.42l-2.87,5.4-1.71,6.24s-.4,6-.4,6.07.44,5.15.44,5.15l1.44,6.07,3.2,6.43,7.26,8.47,5.75,3.48,6.52,2.47,11.73,2.62,8,.78Z"/><path id="Outline" class="cls-4" d="M129.37,87.89c-.6-5.9-4.34-9.84-10.24-10.83a18.32,18.32,0,0,0-7.51.39,5.65,5.65,0,0,0-1.36-.7,15.66,15.66,0,0,1-9.54-9.84l-.07-.45c-1.86-12.52-10-34-43.83-36.88h-.1c-26.23,0-32.64,19.16-34,25.44l-.06.32c.34-.17.68-.33,1-.47,1.51-6.44,8-24.38,33-24.38h.09c33.13,2.86,41.14,23.85,43,36.11l.1.54A16.53,16.53,0,0,0,109.91,77.6l.52.22c-2.18.78-3.89,2-4.54,3.39l.84.39c.54-1.18,2.16-2.28,4.3-3,.28-.09.58-.17.88-.25A17,17,0,0,1,119,78c3.21.53,8.71,2.54,9.47,10,.57,7.74-2.11,13.47-7.73,16.58A21.17,21.17,0,0,1,110.48,107c-.34,0-.66,0-1,0a5.5,5.5,0,0,1-2.25-.47l-.55.75a5.91,5.91,0,0,0,2.5.64,38.81,38.81,0,0,1-8.49,14C88.16,135.12,67.31,138.12,52,136.52c-21.16-2.86-30.7-9.09-36.43-23.81-4.68-14.49.36-24.45,3.86-29.17L18.73,83l-.2.24c-3.6,4.93-8.6,15.12-3.85,29.83,5.89,15.11,15.62,21.5,37.2,24.41a73.57,73.57,0,0,0,7.73.4c14.29,0,31-4,41.78-15.3a39.55,39.55,0,0,0,8.78-14.62l.61,0a22.18,22.18,0,0,0,10.38-2.57C125.32,103.06,130.12,98.16,129.37,87.89Z"/></g><g id="Eyebrows"><path class="cls-4" d="M73.82,48.62C68.5,42.5,61.3,44.21,56.75,47.54l-.54-.74c4.86-3.56,12.57-5.37,18.31,1.22Z"/><path class="cls-4" d="M22.12,46.87l-.66-.63c6-6.34,13.64-4.19,18.34-.42l-.58.71C34.83,43,27.71,41,22.12,46.87Z"/></g><g id="_2" data-name="2"><circle class="cls-12" cx="60.83" cy="73.18" r="18.41"/><path class="cls-7" d="M25.09,86.09A17,17,0,0,1,23,85.28,15.57,15.57,0,0,0,25.09,86.09Z"/><path class="cls-7" d="M18.39,82.09a15.28,15.28,0,0,0,1.41,1.26c.14.11.31.2.46.31A16.53,16.53,0,0,1,18.39,82.09Z"/><path class="cls-7" d="M40.61,83c-.19.16-.4.3-.59.45C40.21,83.27,40.42,83.13,40.61,83Z"/><path class="cls-7" d="M29.06,86.86h0l0-.06a16.74,16.74,0,0,1-3.56-.57A16.43,16.43,0,0,0,29.06,86.86Z"/><path class="cls-7" d="M22.27,84.93q-.48-.25-.93-.54Q21.79,84.68,22.27,84.93Z"/><path class="cls-7" d="M39,84.21h0c.1-.07.2-.16.31-.23l-.36.22Z"/><path class="cls-12" d="M38.91,84.2l.36-.22.75-.56c.19-.15.4-.29.59-.45a14.8,14.8,0,0,0,1.29-1.22,15.6,15.6,0,0,0,1.54-1.92,18.86,18.86,0,0,1,1.39-16.3,16.43,16.43,0,0,0-15.15-9.47H29.5A16.44,16.44,0,0,0,14,66.91a16.84,16.84,0,0,0-.4,4,16.32,16.32,0,0,0,4.84,11.14,16.53,16.53,0,0,0,1.87,1.57c.35.26.71.5,1.08.73s.61.37.93.54.49.23.73.35a17,17,0,0,0,2.09.81l.45.14a16.74,16.74,0,0,0,3.56.57C30.61,84.35,34.18,83.38,38.91,84.2Z"/><path class="cls-12" d="M44.83,63.53h0c.09.17.16.35.23.52C45,63.88,44.92,63.7,44.83,63.53Z"/><path class="cls-7" d="M28.88,87.16s-.07.09-.1.15h0A.75.75,0,0,1,28.88,87.16Z"/><path class="cls-12" d="M43.76,79.38l-.32.45h0Z"/><path class="cls-4" d="M25.54,86.23l-.45-.14Z"/><path class="cls-4" d="M14,66.91A16.44,16.44,0,0,1,29.5,54.06h.18a16.43,16.43,0,0,1,15.15,9.47h0c.09.17.16.35.23.52a1.71,1.71,0,0,0,.13-.23,16.54,16.54,0,1,0-26.8,18.27A16.32,16.32,0,0,1,13.55,71,16.84,16.84,0,0,1,14,66.91Z"/><path class="cls-4" d="M40,83.42l-.75.56C39.53,83.8,39.77,83.61,40,83.42Z"/><path class="cls-4" d="M23,85.28c-.24-.12-.49-.22-.73-.35C22.51,85.06,22.76,85.16,23,85.28Z"/><path class="cls-4" d="M21.34,84.39c-.37-.23-.73-.47-1.08-.73C20.61,83.92,21,84.16,21.34,84.39Z"/><path class="cls-4" d="M43.44,79.83h0a15.6,15.6,0,0,1-1.54,1.92A14.8,14.8,0,0,1,40.61,83a17,17,0,0,0,3.17-3.55l0,0Z"/><path class="cls-4" d="M77.61,80c-2.88-3-9.8,2.11-6.48,8.15l1-.45,2-1.94,1.5-1.61,1.62-2.8Z"/><path class="cls-7" d="M28.88,87.16a.75.75,0,0,0-.09.15h0A.75.75,0,0,1,28.88,87.16Z"/><path class="cls-7" d="M42.42,76a17.42,17.42,0,0,1-.24-2.4,18.33,18.33,0,0,1,.43-4.39,18.64,18.64,0,0,1,2.22-5.72c.09.17.16.35.23.52a18.23,18.23,0,0,0-2,5.23,18,18,0,0,0-.44,4.35,19.48,19.48,0,0,0,.28,2.42,2.82,2.82,0,0,1,1.8.83l-.36,1.35-.61,1.07s0,0,0,.08l-.32.45h0l-.09.15c.14-.19.3-.36.43-.55l.18.47A18.17,18.17,0,0,0,61.08,91.25h.21A18.18,18.18,0,0,0,78.91,72.59c0-.13,0-.26,0-.39A18.12,18.12,0,0,0,60.46,55h-.21a18.05,18.05,0,0,0-12.67,5.68,18.58,18.58,0,0,0-2.23,2.89h0c-.05.09-.1.19-.16.28a16.54,16.54,0,1,0-26.8,18.27,15.28,15.28,0,0,0,1.41,1.26c.14.11.31.2.46.31.35.25.71.5,1.08.73s.61.37.93.54.49.23.73.35a15.57,15.57,0,0,0,2.09.81l.45.14a16.43,16.43,0,0,0,3.52.63h0l0-.06c1.39-2.25,4.53-3.23,8.69-2.75A5.84,5.84,0,0,1,42.42,76Z"/><path class="cls-4" d="M79.36,72.58c0-.18,0-.36,0-.53A18.56,18.56,0,0,0,60.45,54.51h-.21a18.48,18.48,0,0,0-13,5.83,19.18,19.18,0,0,0-2.14,2.73A16.89,16.89,0,0,0,29.67,53.6h-.19A17.06,17.06,0,0,0,23.28,55l-1,.49-.31.17a16.94,16.94,0,0,0-8.46,11.3A16.68,16.68,0,0,0,18.71,83l.12.1c.23.21.46.4.7.58a16.74,16.74,0,0,0,9.26,3.59.75.75,0,0,1,.09-.15.75.75,0,0,0-.09.15h0a5.12,5.12,0,0,0,1.59,6,5.72,5.72,0,0,0,3.73,1.2,11.76,11.76,0,0,0,6.82-2.86l-.28-.36c-3.8,3-7.53,3.59-10,1.66A4.65,4.65,0,0,1,29.2,87.5c0-.06.08-.11.11-.18a4.08,4.08,0,0,1,.28-.44h0s0,0,.05-.06C31,84.84,34,84,38,84.54c-.07-.16-.16-.32-.22-.49-4.16-.48-7.3.5-8.69,2.75l0,.06h0a16.43,16.43,0,0,1-3.52-.63l-.45-.14A15.57,15.57,0,0,1,23,85.28c-.24-.12-.49-.22-.73-.35s-.63-.35-.93-.54-.73-.48-1.08-.73c-.15-.11-.32-.2-.46-.31a15.28,15.28,0,0,1-1.41-1.26,16.53,16.53,0,1,1,26.8-18.27c.06-.09.11-.19.16-.28h0a18.58,18.58,0,0,1,2.23-2.89A18.05,18.05,0,0,1,60.25,55h.21A18.12,18.12,0,0,1,78.88,72.2c0,.13,0,.26,0,.39A18.18,18.18,0,0,1,61.29,91.25h-.21A18.17,18.17,0,0,1,44,79.89l-.18-.47c-.13.19-.29.36-.43.55L42.74,81l-1.51,1.61-2,1.94-.19.09h.06l.14-.09a17.32,17.32,0,0,0,3-2.52,17.53,17.53,0,0,0,1.4-1.72A18.61,18.61,0,0,0,61.09,91.71h.21A18.6,18.6,0,0,0,79.36,72.58Z"/><path class="cls-4" d="M43.76,79.38s0-.06,0-.08l-.3.52h0Z"/><path class="cls-4" d="M42.63,73.63a18,18,0,0,1,.44-4.35,18.23,18.23,0,0,1,2-5.23c-.07-.17-.14-.35-.23-.52a18.64,18.64,0,0,0-2.22,5.72,18.33,18.33,0,0,0-.43,4.39,17.42,17.42,0,0,0,.24,2.4,2.66,2.66,0,0,1,.49,0A19.48,19.48,0,0,1,42.63,73.63Z"/><path class="cls-4" d="M39,84.21h0c.1-.07.2-.16.31-.23s.5-.37.75-.56.4-.29.59-.45a21.2,21.2,0,0,0,3.16-3.33l0-.23a19.83,19.83,0,0,1-1.38-3.77c-2.89.13-6.76,4.52-4.57,8.41.37,0,.74.08,1.12.15Z"/><path class="cls-4" d="M41.23,82.64,42.74,81,43.35,80a17,17,0,0,1-2.74,3c-.19.16-.4.3-.59.45s-.49.38-.75.56-.21.16-.31.23h-.05c-.38-.07-.75-.1-1.12-.15.06.17.15.33.22.49l.31,0h0c.21,0,.42.06.63.09l.19-.09Z"/><path class="cls-4" d="M42.91,76.05a2.66,2.66,0,0,0-.49,0,18.67,18.67,0,0,0,1,3.78l.3-.52A18.43,18.43,0,0,1,42.91,76.05Z"/><path class="cls-4" d="M18.12,58.93a2.72,2.72,0,0,1-2.61-2.34.24.24,0,0,1,.21-.26.22.22,0,0,1,.25.21,2.26,2.26,0,0,0,2.15,1.93h0a.23.23,0,0,1,0,.46Z"/><path class="cls-4" d="M73.47,60h0a.24.24,0,0,1,0-.47h0a2.25,2.25,0,0,0,2.15-1.92.23.23,0,0,1,.25-.21.24.24,0,0,1,.21.26A2.73,2.73,0,0,1,73.47,60Z"/><path class="cls-13" d="M52.55,122.33h0l.67,0h0Z"/><path class="cls-7" d="M72,113.52c-.28.45-.59.9-.94,1.36C71.39,114.42,71.7,114,72,113.52Z"/><path class="cls-14" d="M53.22,122.29c.55,0,1.11,0,1.68-.1C62,121.5,68.21,118.7,71,114.88c.35-.46.66-.91.94-1.36s.53-.9.75-1.34C64,110.21,55.25,119,53.22,122.29Z"/><path class="cls-7" d="M38.72,119a12.67,12.67,0,0,1-1.46-1.14A12.67,12.67,0,0,0,38.72,119Z"/><path class="cls-7" d="M73.23,105a5.53,5.53,0,0,1,.37.92A5.53,5.53,0,0,0,73.23,105Z"/><path class="cls-7" d="M73.69,106.18a5.28,5.28,0,0,1,.13.67A5.28,5.28,0,0,0,73.69,106.18Z"/><path class="cls-7" d="M73.88,107.22a6.44,6.44,0,0,1,0,.88A6.44,6.44,0,0,0,73.88,107.22Z"/><path class="cls-7" d="M46.31,121.87c-.3-.06-.6-.11-.9-.18C45.71,121.76,46,121.81,46.31,121.87Z"/><path class="cls-7" d="M50.7,122.31h0Z"/><path class="cls-7" d="M48.49,122.17l-.79-.08Z"/><path class="cls-7" d="M40.38,119.94c-.37-.19-.72-.4-1.06-.61C39.66,119.54,40,119.75,40.38,119.94Z"/><path class="cls-7" d="M73.83,108.73c0,.12,0,.23,0,.35C73.8,109,73.82,108.85,73.83,108.73Z"/><path class="cls-7" d="M42.22,120.75c-.35-.13-.68-.27-1-.42C41.54,120.48,41.87,120.62,42.22,120.75Z"/><path class="cls-7" d="M44.2,121.39c-.32-.08-.64-.18-1-.28C43.56,121.21,43.88,121.31,44.2,121.39Z"/><path class="cls-13" d="M73,111.66h0a10.62,10.62,0,0,0,.81-2.58c0-.12,0-.23,0-.35s0-.42.06-.63a6.44,6.44,0,0,0,0-.88c0-.13,0-.24-.06-.37a5.28,5.28,0,0,0-.13-.67c0-.1,0-.21-.09-.31a5.53,5.53,0,0,0-.37-.92,7.4,7.4,0,0,0-3.73-3.32,6.62,6.62,0,0,0-2.54-.58,20.44,20.44,0,0,0-6.21,1.71,52,52,0,0,1-7.56,2.41,24.61,24.61,0,0,1-12.22.52,4.21,4.21,0,0,0-5.4,1.94,8.12,8.12,0,0,0,1.69,10.2A12.67,12.67,0,0,0,38.72,119c.19.13.4.24.6.36s.69.42,1.06.61.55.26.84.39.65.29,1,.42.68.24,1,.36.63.2,1,.28.8.21,1.21.3.6.12.9.18.92.16,1.39.22l.79.08c.53,0,1.06.1,1.6.13h.61c.61,0,1.22,0,1.85,0C54.37,119,63.55,109.44,73,111.66Z"/><path class="cls-4" d="M45.41,121.69c-.41-.09-.81-.19-1.21-.3C44.6,121.5,45,121.6,45.41,121.69Z"/><path class="cls-4" d="M43.25,121.11c-.35-.12-.7-.23-1-.36C42.55,120.88,42.9,121,43.25,121.11Z"/><path class="cls-4" d="M50.7,122.31c.61,0,1.22,0,1.85,0h0C51.92,122.34,51.31,122.33,50.7,122.31Z"/><path class="cls-4" d="M50.09,122.3c-.54,0-1.07-.08-1.6-.13C49,122.22,49.55,122.27,50.09,122.3Z"/><path class="cls-4" d="M41.22,120.33c-.29-.13-.57-.25-.84-.39C40.65,120.08,40.93,120.2,41.22,120.33Z"/><path class="cls-4" d="M73.78,109.08a10.62,10.62,0,0,1-.81,2.58A10.76,10.76,0,0,0,73.78,109.08Z"/><path class="cls-4" d="M47.7,122.09c-.47-.06-.94-.14-1.39-.22C46.77,122,47.23,122,47.7,122.09Z"/><path class="cls-4" d="M73.89,108.1q0,.32-.06.63Q73.88,108.42,73.89,108.1Z"/><path class="cls-4" d="M73.6,105.87c0,.1.06.21.09.31C73.66,106.08,73.64,106,73.6,105.87Z"/><path class="cls-4" d="M73.82,106.85c0,.13.05.24.06.37C73.87,107.09,73.84,107,73.82,106.85Z"/><path class="cls-4" d="M39.32,119.33c-.2-.12-.41-.23-.6-.36C38.91,119.1,39.12,119.21,39.32,119.33Z"/><path class="cls-4" d="M53.22,122.29h0c.55,0,1.11,0,1.68-.1C54.33,122.25,53.77,122.26,53.22,122.29Z"/><path class="cls-4" d="M72,113.52c.28-.46.53-.9.75-1.34h0C72.51,112.62,72.26,113.06,72,113.52Z"/><path class="cls-4" d="M52.55,122.33l.67,0c2-3.27,10.73-12.08,19.51-10.11.09-.17.16-.35.24-.52h0C63.55,109.44,54.37,119,52.55,122.33Z"/><path class="cls-4" d="M72.73,112.18c.09-.17.16-.35.24-.52-.08.17-.15.35-.24.52Z"/><path class="cls-12" d="M67,100.9a20.67,20.67,0,0,0-6.28,1.74,53.78,53.78,0,0,1-7.59,2.41,24.08,24.08,0,0,1-12.09.52,5.66,5.66,0,0,0-3.52-.06l.5.44.91,5.1c1.76.56,21.12,5.14,33.88-6.73l0,0a7.87,7.87,0,0,0-3.17-2.83A6.73,6.73,0,0,0,67,100.9Z"/><path class="cls-7" d="M38.92,111.24l-.15,0,0-.15c-.18-.69-1.07-4.77-1.18-5.28a1.68,1.68,0,0,0-.34.15,4.29,4.29,0,0,0-.5.37h0a5.64,5.64,0,0,0-1.13,1.34,8.12,8.12,0,0,0,1.69,10.2A12.67,12.67,0,0,0,38.72,119c.19.13.4.24.6.36s.69.43,1.06.62l.84.38c.32.15.65.29,1,.42s.68.24,1,.36.63.2,1,.28.8.21,1.21.3.59.12.9.18.92.16,1.39.22l.79.08c.53,0,1.06.1,1.6.13h.61c.61,0,1.22,0,1.85,0l.67,0c.55,0,1.11,0,1.68-.1C62,121.5,68.21,118.7,71,114.88c.35-.46.66-.91.94-1.36s.53-.9.75-1.34c.09-.17.16-.35.24-.52a10.76,10.76,0,0,0,.81-2.58c0-.12,0-.23,0-.35s0-.42.06-.63a6.44,6.44,0,0,0,0-.88c0-.13,0-.24-.06-.37a5.28,5.28,0,0,0-.13-.67c0-.1,0-.21-.09-.31a5.56,5.56,0,0,0-.35-.88l0,0a2.25,2.25,0,0,0-.12-.21c0-.08-.09-.16-.14-.23s-.1-.13-.15-.2C62.36,115.3,44.4,112.94,38.92,111.24Z"/><path class="cls-7" d="M39.23,110.76c5.57,1.67,23.07,3.87,33.24-6.88a7.83,7.83,0,0,0-3-2.25,6.62,6.62,0,0,0-2.54-.58,20.44,20.44,0,0,0-6.21,1.71,52,52,0,0,1-7.56,2.41,24.61,24.61,0,0,1-12.22.52,6.55,6.55,0,0,0-2.82-.13l-.06.12C38.22,106.27,39,109.81,39.23,110.76Z"/><path class="cls-4" d="M53.19,105.17a52,52,0,0,0,7.56-2.41A20.44,20.44,0,0,1,67,101.05a6.62,6.62,0,0,1,2.54.58,7.83,7.83,0,0,1,3,2.25h0l.11-.07.39-.17a8.37,8.37,0,0,0-6-3.14,20.7,20.7,0,0,0-6.39,1.75,52.29,52.29,0,0,1-7.49,2.39c-2.48.7-7.33,1.7-11.94.52a11.67,11.67,0,0,0-2.54-.25l-.18,0-.25.6a6.55,6.55,0,0,1,2.82.13A24.61,24.61,0,0,0,53.19,105.17Z"/><path class="cls-4" d="M73.72,104.7a.18.18,0,0,0,0-.07,3.34,3.34,0,0,0-.25-.4l-.09-.15a3.28,3.28,0,0,1-.5.22h0c.05.07.11.13.15.2s.09.15.14.23a2.25,2.25,0,0,1,.12.21l0,0a5.56,5.56,0,0,1,.35.88c0,.1.06.21.09.31a5.28,5.28,0,0,1,.13.67c0,.13.05.24.06.37a6.44,6.44,0,0,1,0,.88q0,.32-.06.63c0,.12,0,.23,0,.35a10.76,10.76,0,0,1-.81,2.58c-.08.17-.15.35-.24.52-.22.44-.47.88-.75,1.34s-.59.9-.94,1.36c-2.83,3.82-9,6.62-16.14,7.31-.57.06-1.13.07-1.68.1l-.67,0c-.63,0-1.24,0-1.85,0h-.61c-.54,0-1.07-.08-1.6-.13l-.79-.08c-.47-.06-.93-.14-1.39-.22s-.6-.11-.9-.18-.81-.19-1.21-.3-.64-.18-1-.28-.7-.23-1-.36-.68-.27-1-.42l-.84-.38c-.37-.19-.72-.41-1.06-.62s-.41-.23-.6-.36a12.67,12.67,0,0,1-1.46-1.14,8.12,8.12,0,0,1-1.69-10.2,5.64,5.64,0,0,1,1.13-1.34h0a4.29,4.29,0,0,1,.5-.37,1.68,1.68,0,0,1,.34-.15v-.06l0-.09.21-.47a1.11,1.11,0,0,0-.26.07,2.49,2.49,0,0,0-.29.11,4.72,4.72,0,0,0-.53.33,5.74,5.74,0,0,0-1.55,1.68,8.68,8.68,0,0,0,1.79,10.9A15.44,15.44,0,0,0,41.28,121a27,27,0,0,0,11,1.9h.77c.62,0,1.25-.07,1.89-.13,7.27-.71,13.61-3.59,16.53-7.53a18.3,18.3,0,0,0,1.8-2.9l.24-.5C75,108.58,74.51,106.23,73.72,104.7Z"/><path class="cls-4" d="M72.47,103.88c-10.17,10.75-27.67,8.55-33.24,6.88-.24-1-1-4.49-1.14-5.08l.06-.12a1.53,1.53,0,0,0-.34.09l-.26.12c.11.51,1,4.59,1.18,5.28l0,.15.15,0c5.48,1.7,23.44,4.06,33.9-6.93,0,0,0,0,0,0A4.39,4.39,0,0,0,72.47,103.88Z"/><path class="cls-4" d="M73.07,103.74l-.09-.1-.39.17-.11.07h0a4.39,4.39,0,0,1,.33.4s0,0,0,0h0a3.28,3.28,0,0,0,.5-.22l-.06-.09C73.21,103.9,73.14,103.83,73.07,103.74Z"/><path class="cls-4" d="M37.54,105.71v.06l.26-.12a1.53,1.53,0,0,1,.34-.09l.25-.6a3.93,3.93,0,0,0-.67.19l-.21.47Z"/></g><g id="Rohan-3" data-name="Rohan"><path class="cls-5" d="M109.94,122.53l-.73-.14c0-.11,2.21-10.92.83-17.77l.73-.15C112.18,111.47,110,122.09,109.94,122.53Z"/><path class="cls-6" d="M106.39,126.88a3.53,3.53,0,0,1,1.35-.17h0l0-1.84h.31c0-.46,0-.93.08-1.4a1.71,1.71,0,0,0-.11-1,5.64,5.64,0,0,0-1.58.6C106.49,123.57,106.44,125.15,106.39,126.88Z"/><path class="cls-7" d="M108,127l-.09,1.63,0,.67h.35l.08-4.42h-.21v.25Z"/><path class="cls-6" d="M107.87,129.29h-.17l0-1.88a2.67,2.67,0,0,0-1.38.26c-.08,2.23-.17,4.47-.18,4.8s.81,1.53,1.39,2.89l.18-3.69Z"/><path class="cls-8" d="M110.09,135.42l1.48-2.53a2.85,2.85,0,0,0,.53-1.57c0-.43-.27-.83-.31-1.26a.51.51,0,0,1,.17-.48.28.28,0,0,1,.36.1c0-.51,0-1.05,0-1.59a2.15,2.15,0,0,0-1.1-.56h0v0l0,1.73h-.52l.1-4.43h.52l0,2h0a3.75,3.75,0,0,1,1.12.39c0-1.85,0-3.54,0-3.85a5.47,5.47,0,0,0-4.21-.9,1.71,1.71,0,0,1,.11,1c0,.47,0,.94-.08,1.4h.21l-.08,4.42h-.35l-.12,2.37-.18,3.69a13.12,13.12,0,0,1,.75,2.17l.35-5.35h0a1,1,0,1,1,1,0l0,2.82s.07,0,.1,0C109.9,135,110,135.21,110.09,135.42Z"/><path class="cls-9" d="M110.15,125.44a1.08,1.08,0,0,0-.28.6,3.27,3.27,0,0,0-.11.88c0,.57.4,1.12.26,1.68-.06.25-.22.54-.07.75s.5.16.67,0a1.25,1.25,0,0,0,.2-.74l.13-1.87a2.43,2.43,0,0,0-.1-1.17A.45.45,0,0,0,110.15,125.44Z"/><path class="cls-10" d="M112.36,132.49c0-.34,0-1.46,0-2.81a.28.28,0,0,0-.36-.1.51.51,0,0,0-.17.48c0,.43.28.83.31,1.26a2.85,2.85,0,0,1-.53,1.57l-1.48,2.53c-.07-.21-.19-.45-.41-.48,0,0-.06,0-.1,0l0,2.51A19.8,19.8,0,0,1,112.36,132.49Z"/><path class="cls-4" d="M106.32,122.91l-.06,0V123c0,.43,0,2.13-.09,4,0,.13,0,.26,0,.4v.09c0,.08,0,.17,0,.25-.08,2.36-.18,4.71-.18,4.76v.05a26.07,26.07,0,0,1,2.18,5.23,1.71,1.71,0,0,1,0,.31v.07l.08,0a2,2,0,0,0,.63.07,2.73,2.73,0,0,0,.61-.1l.06,0v-.06a1.1,1.1,0,0,1,0-.15,18.06,18.06,0,0,1,2.92-5.32l0,0v0c0-.38,0-2.42-.06-4.48v-.68c0-2.08,0-4,0-4v0l0,0A5.61,5.61,0,0,0,106.32,122.91Zm6,4.3a3.75,3.75,0,0,0-1.12-.39h0l0-2h-.52l-.1,4.43h.52l0-1.73v0h0a2.15,2.15,0,0,1,1.1.56c0,2,0,3.94.06,4.4a19.8,19.8,0,0,0-2.82,5l.09-5.33a1,1,0,0,0-.54-1.86,1,1,0,0,0-.42,1.89h0l-.35,5.35a26.16,26.16,0,0,0-2.14-5.06c0-.33.1-2.57.18-4.8a2.67,2.67,0,0,1,1.38-.26l0,1.88h.52l.08-4.42h-.52l0,1.84h0a3.53,3.53,0,0,0-1.35.17c0-1.73.1-3.31.09-3.82a5.38,5.38,0,0,1,5.79.3C112.27,123.67,112.28,125.36,112.3,127.21Z"/></g></g></g></g></svg>