<svg xmlns="http://www.w3.org/2000/svg" viewBox="0 0 241.26 320.6"><defs><style>.cls-1{fill:#aa934f;}.cls-2{fill:#100;}</style></defs><g id="Layer_2" data-name="Layer 2"><g id="gravity_falls_hand" data-name="gravity falls hand"><path class="cls-1" d="M235.4,159.16c-5.64,0-18.87,0-23.61,0l-26.52,66.25,3.11-21c5.28-35.69,3.73-158.32,3.46-177.27H175L151.34,137.29,150.85,8H133.69L110.77,132.22,108.26,5H91.63L72.78,133.48,64.27,25.28H49.63L34.17,155.81l-7.89-92.6H10.53c-2.43,15.5-7.21,111.92-5,135.2,3,53.63,30.68,82.32,53.38,97,25.1,16.19,51.93,20.48,59,20.23,84.15-7.27,123.71-59.54,117.6-155.36C235.44,159.86,235.42,159.5,235.4,159.16Z"/><path class="cls-2" d="M240.25,156.5l-.14-2.44-2.44.08c-1.71.05-18.78,0-27.57,0h-1.69l-13.35,33.34c3.53-51.77,1.83-157.86,1.74-162.94l0-2.46H171L156.16,91l-.33-88h-26.3L114.8,82.85,113.17,0H87.31l-13,88.81L68.89,20.28H45.18L35,106.43,30.87,58.21H6.69l-.56,1.73C3.41,68.39-1.59,176.31.5,198.78c3.1,55.64,32,85.52,55.65,100.79,24.83,16,51.49,21,61.06,21,.33,0,.63,0,.92,0h.11c55.92-4.82,93.37-29.36,111.31-72.95,14.29-34.72,11.92-71.86,10.91-87.72C240.37,158.63,240.3,157.49,240.25,156.5ZM117.87,315.59c-7.08.25-33.91-4-59-20.23-22.7-14.63-50.38-43.32-53.38-97-2.16-23.28,2.62-119.7,5-135.2H26.28l7.89,92.6L49.63,25.28H64.27l8.51,108.2L91.63,5h16.63l2.51,127.22L133.69,8h17.16l.49,129.26L175,27.07h16.83c.27,19,1.82,141.58-3.46,177.27l-3.11,21,26.52-66.25c4.74,0,18,0,23.61,0,0,.34,0,.7.07,1.07C241.58,256.05,202,308.32,117.87,315.59Z"/></g></g></svg>